<svg xmlns="http://www.w3.org/2000/svg" xmlns:xlink="http://www.w3.org/1999/xlink" width="1920" zoomAndPan="magnify" viewBox="0 0 1440 809.999993" height="1080" preserveAspectRatio="xMidYMid meet" version="1.0"><defs><clipPath id="d68d5578b0"><path d="M 0 496.625 L 241.359375 496.625 L 241.359375 810 L 0 810 Z M 0 496.625 " clip-rule="nonzero"/></clipPath><clipPath id="33fff0e2b8"><path d="M 0 528 L 241.359375 528 L 241.359375 635 L 0 635 Z M 0 528 " clip-rule="nonzero"/></clipPath><clipPath id="374896da97"><path d="M 221.296875 817.625 L -59.578125 817.625 C -70.664062 817.625 -79.640625 808.648438 -79.640625 797.5625 L -79.640625 516.6875 C -79.640625 505.605469 -70.664062 496.625 -59.578125 496.625 L 221.296875 496.625 C 232.378906 496.625 241.359375 505.605469 241.359375 516.6875 L 241.359375 797.5625 C 241.359375 808.648438 232.378906 817.625 221.296875 817.625 Z M 221.296875 817.625 " clip-rule="nonzero"/></clipPath><clipPath id="a402ce0203"><path d="M 0 496.625 L 241.359375 496.625 L 241.359375 596 L 0 596 Z M 0 496.625 " clip-rule="nonzero"/></clipPath><clipPath id="79f2256720"><path d="M 221.296875 817.625 L -59.578125 817.625 C -70.664062 817.625 -79.640625 808.648438 -79.640625 797.5625 L -79.640625 516.6875 C -79.640625 505.605469 -70.664062 496.625 -59.578125 496.625 L 221.296875 496.625 C 232.378906 496.625 241.359375 505.605469 241.359375 516.6875 L 241.359375 797.5625 C 241.359375 808.648438 232.378906 817.625 221.296875 817.625 Z M 221.296875 817.625 " clip-rule="nonzero"/></clipPath><clipPath id="3b32aea941"><path d="M 0 530 L 6 530 L 6 595.941406 L 0 595.941406 Z M 0 530 " clip-rule="nonzero"/></clipPath><clipPath id="0d9ea8750e"><path d="M 221.296875 817.625 L -59.578125 817.625 C -70.664062 817.625 -79.640625 808.648438 -79.640625 797.5625 L -79.640625 516.6875 C -79.640625 505.605469 -70.664062 496.625 -59.578125 496.625 L 221.296875 496.625 C 232.378906 496.625 241.359375 505.605469 241.359375 516.6875 L 241.359375 797.5625 C 241.359375 808.648438 232.378906 817.625 221.296875 817.625 Z M 221.296875 817.625 " clip-rule="nonzero"/></clipPath><clipPath id="1aac1160a3"><path d="M -85.03125 595.941406 L -35.765625 595.941406 C -34.550781 595.941406 -33.5625 594.949219 -33.5625 593.738281 L -33.5625 564.007812 C -33.5625 562.796875 -32.574219 561.808594 -31.363281 561.808594 L 20.769531 561.808594 C 21.980469 561.808594 22.96875 562.796875 22.96875 564.007812 L 22.96875 583.460938 C 22.96875 584.671875 23.957031 585.660156 25.171875 585.660156 L 60.914062 585.660156 C 62.125 585.660156 63.113281 584.671875 63.113281 583.460938 L 63.113281 564.007812 C 63.113281 562.796875 64.101562 561.808594 65.316406 561.808594 L 113.664062 561.808594 C 114.875 561.808594 115.863281 562.796875 115.863281 564.007812 L 115.863281 577.640625 C 115.863281 578.855469 116.851562 579.84375 118.066406 579.84375 L 155.550781 579.84375 C 156.765625 579.84375 157.753906 578.855469 157.753906 577.640625 L 157.753906 561.292969 C 157.753906 560.082031 158.742188 559.09375 159.953125 559.09375 L 201.222656 559.09375 C 202.4375 559.09375 203.425781 560.082031 203.425781 561.292969 L 203.425781 593.253906 C 203.425781 594.464844 204.414062 595.457031 205.625 595.457031 L 241.988281 595.457031 C 243.113281 595.457031 244.054688 594.613281 244.179688 593.496094 L 247.824219 560.953125 C 247.835938 560.875 247.835938 560.789062 247.835938 560.710938 L 247.835938 492.058594 C 247.835938 490.847656 246.847656 489.859375 245.632812 489.859375 L -82.898438 489.859375 C -84.09375 489.859375 -85.070312 490.816406 -85.101562 492.011719 L -87.234375 593.691406 C -87.261719 594.921875 -86.265625 595.941406 -85.03125 595.941406 Z M -85.03125 595.941406 " clip-rule="nonzero"/></clipPath><clipPath id="52ca7fd621"><path d="M 59 496.625 L 130 496.625 L 130 541 L 59 541 Z M 59 496.625 " clip-rule="nonzero"/></clipPath><clipPath id="749552f080"><path d="M 221.296875 817.625 L -59.578125 817.625 C -70.664062 817.625 -79.640625 808.648438 -79.640625 797.5625 L -79.640625 516.6875 C -79.640625 505.605469 -70.664062 496.625 -59.578125 496.625 L 221.296875 496.625 C 232.378906 496.625 241.359375 505.605469 241.359375 516.6875 L 241.359375 797.5625 C 241.359375 808.648438 232.378906 817.625 221.296875 817.625 Z M 221.296875 817.625 " clip-rule="nonzero"/></clipPath><clipPath id="5adaa9b48d"><path d="M -85.03125 595.941406 L -35.765625 595.941406 C -34.550781 595.941406 -33.5625 594.949219 -33.5625 593.738281 L -33.5625 564.007812 C -33.5625 562.796875 -32.574219 561.808594 -31.363281 561.808594 L 20.769531 561.808594 C 21.980469 561.808594 22.96875 562.796875 22.96875 564.007812 L 22.96875 583.460938 C 22.96875 584.671875 23.957031 585.660156 25.171875 585.660156 L 60.914062 585.660156 C 62.125 585.660156 63.113281 584.671875 63.113281 583.460938 L 63.113281 564.007812 C 63.113281 562.796875 64.101562 561.808594 65.316406 561.808594 L 113.664062 561.808594 C 114.875 561.808594 115.863281 562.796875 115.863281 564.007812 L 115.863281 577.640625 C 115.863281 578.855469 116.851562 579.84375 118.066406 579.84375 L 155.550781 579.84375 C 156.765625 579.84375 157.753906 578.855469 157.753906 577.640625 L 157.753906 561.292969 C 157.753906 560.082031 158.742188 559.09375 159.953125 559.09375 L 201.222656 559.09375 C 202.4375 559.09375 203.425781 560.082031 203.425781 561.292969 L 203.425781 593.253906 C 203.425781 594.464844 204.414062 595.457031 205.625 595.457031 L 241.988281 595.457031 C 243.113281 595.457031 244.054688 594.613281 244.179688 593.496094 L 247.824219 560.953125 C 247.835938 560.875 247.835938 560.789062 247.835938 560.710938 L 247.835938 492.058594 C 247.835938 490.847656 246.847656 489.859375 245.632812 489.859375 L -82.898438 489.859375 C -84.09375 489.859375 -85.070312 490.816406 -85.101562 492.011719 L -87.234375 593.691406 C -87.261719 594.921875 -86.265625 595.941406 -85.03125 595.941406 Z M -85.03125 595.941406 " clip-rule="nonzero"/></clipPath><clipPath id="0419d7d6c6"><path d="M 173 533 L 241.359375 533 L 241.359375 595.941406 L 173 595.941406 Z M 173 533 " clip-rule="nonzero"/></clipPath><clipPath id="f2e7af0207"><path d="M 221.296875 817.625 L -59.578125 817.625 C -70.664062 817.625 -79.640625 808.648438 -79.640625 797.5625 L -79.640625 516.6875 C -79.640625 505.605469 -70.664062 496.625 -59.578125 496.625 L 221.296875 496.625 C 232.378906 496.625 241.359375 505.605469 241.359375 516.6875 L 241.359375 797.5625 C 241.359375 808.648438 232.378906 817.625 221.296875 817.625 Z M 221.296875 817.625 " clip-rule="nonzero"/></clipPath><clipPath id="f281cea684"><path d="M -85.03125 595.941406 L -35.765625 595.941406 C -34.550781 595.941406 -33.5625 594.949219 -33.5625 593.738281 L -33.5625 564.007812 C -33.5625 562.796875 -32.574219 561.808594 -31.363281 561.808594 L 20.769531 561.808594 C 21.980469 561.808594 22.96875 562.796875 22.96875 564.007812 L 22.96875 583.460938 C 22.96875 584.671875 23.957031 585.660156 25.171875 585.660156 L 60.914062 585.660156 C 62.125 585.660156 63.113281 584.671875 63.113281 583.460938 L 63.113281 564.007812 C 63.113281 562.796875 64.101562 561.808594 65.316406 561.808594 L 113.664062 561.808594 C 114.875 561.808594 115.863281 562.796875 115.863281 564.007812 L 115.863281 577.640625 C 115.863281 578.855469 116.851562 579.84375 118.066406 579.84375 L 155.550781 579.84375 C 156.765625 579.84375 157.753906 578.855469 157.753906 577.640625 L 157.753906 561.292969 C 157.753906 560.082031 158.742188 559.09375 159.953125 559.09375 L 201.222656 559.09375 C 202.4375 559.09375 203.425781 560.082031 203.425781 561.292969 L 203.425781 593.253906 C 203.425781 594.464844 204.414062 595.457031 205.625 595.457031 L 241.988281 595.457031 C 243.113281 595.457031 244.054688 594.613281 244.179688 593.496094 L 247.824219 560.953125 C 247.835938 560.875 247.835938 560.789062 247.835938 560.710938 L 247.835938 492.058594 C 247.835938 490.847656 246.847656 489.859375 245.632812 489.859375 L -82.898438 489.859375 C -84.09375 489.859375 -85.070312 490.816406 -85.101562 492.011719 L -87.234375 593.691406 C -87.261719 594.921875 -86.265625 595.941406 -85.03125 595.941406 Z M -85.03125 595.941406 " clip-rule="nonzero"/></clipPath><clipPath id="f1266c6574"><path d="M 0 705 L 21 705 L 21 742 L 0 742 Z M 0 705 " clip-rule="nonzero"/></clipPath><clipPath id="ecb37a0c36"><path d="M 221.296875 817.625 L -59.578125 817.625 C -70.664062 817.625 -79.640625 808.648438 -79.640625 797.5625 L -79.640625 516.6875 C -79.640625 505.605469 -70.664062 496.625 -59.578125 496.625 L 221.296875 496.625 C 232.378906 496.625 241.359375 505.605469 241.359375 516.6875 L 241.359375 797.5625 C 241.359375 808.648438 232.378906 817.625 221.296875 817.625 Z M 221.296875 817.625 " clip-rule="nonzero"/></clipPath><clipPath id="6ab4064a2f"><path d="M 78 661 L 116 661 L 116 699 L 78 699 Z M 78 661 " clip-rule="nonzero"/></clipPath><clipPath id="febbab99b9"><path d="M 221.296875 817.625 L -59.578125 817.625 C -70.664062 817.625 -79.640625 808.648438 -79.640625 797.5625 L -79.640625 516.6875 C -79.640625 505.605469 -70.664062 496.625 -59.578125 496.625 L 221.296875 496.625 C 232.378906 496.625 241.359375 505.605469 241.359375 516.6875 L 241.359375 797.5625 C 241.359375 808.648438 232.378906 817.625 221.296875 817.625 Z M 221.296875 817.625 " clip-rule="nonzero"/></clipPath><clipPath id="17ea35c4e8"><path d="M 156 728 L 194 728 L 194 765 L 156 765 Z M 156 728 " clip-rule="nonzero"/></clipPath><clipPath id="4902bc1042"><path d="M 221.296875 817.625 L -59.578125 817.625 C -70.664062 817.625 -79.640625 808.648438 -79.640625 797.5625 L -79.640625 516.6875 C -79.640625 505.605469 -70.664062 496.625 -59.578125 496.625 L 221.296875 496.625 C 232.378906 496.625 241.359375 505.605469 241.359375 516.6875 L 241.359375 797.5625 C 241.359375 808.648438 232.378906 817.625 221.296875 817.625 Z M 221.296875 817.625 " clip-rule="nonzero"/></clipPath><clipPath id="ab8a2886ae"><path d="M 232.351562 496.625 L 553.351562 496.625 L 553.351562 810 L 232.351562 810 Z M 232.351562 496.625 " clip-rule="nonzero"/></clipPath><clipPath id="1280fd2217"><path d="M 232.351562 528 L 553.351562 528 L 553.351562 635 L 232.351562 635 Z M 232.351562 528 " clip-rule="nonzero"/></clipPath><clipPath id="c28764d0ed"><path d="M 533.289062 817.625 L 252.414062 817.625 C 241.332031 817.625 232.351562 808.648438 232.351562 797.5625 L 232.351562 516.6875 C 232.351562 505.605469 241.332031 496.625 252.414062 496.625 L 533.289062 496.625 C 544.371094 496.625 553.351562 505.605469 553.351562 516.6875 L 553.351562 797.5625 C 553.351562 808.648438 544.371094 817.625 533.289062 817.625 Z M 533.289062 817.625 " clip-rule="nonzero"/></clipPath><clipPath id="3d35c09efc"><path d="M 232.351562 496.625 L 553.351562 496.625 L 553.351562 596 L 232.351562 596 Z M 232.351562 496.625 " clip-rule="nonzero"/></clipPath><clipPath id="83d82be921"><path d="M 533.289062 817.625 L 252.414062 817.625 C 241.332031 817.625 232.351562 808.648438 232.351562 797.5625 L 232.351562 516.6875 C 232.351562 505.605469 241.332031 496.625 252.414062 496.625 L 533.289062 496.625 C 544.371094 496.625 553.351562 505.605469 553.351562 516.6875 L 553.351562 797.5625 C 553.351562 808.648438 544.371094 817.625 533.289062 817.625 Z M 533.289062 817.625 " clip-rule="nonzero"/></clipPath><clipPath id="f8be7ef3d4"><path d="M 247 530 L 318 530 L 318 595.941406 L 247 595.941406 Z M 247 530 " clip-rule="nonzero"/></clipPath><clipPath id="bcc34cfdc2"><path d="M 533.289062 817.625 L 252.414062 817.625 C 241.332031 817.625 232.351562 808.648438 232.351562 797.5625 L 232.351562 516.6875 C 232.351562 505.605469 241.332031 496.625 252.414062 496.625 L 533.289062 496.625 C 544.371094 496.625 553.351562 505.605469 553.351562 516.6875 L 553.351562 797.5625 C 553.351562 808.648438 544.371094 817.625 533.289062 817.625 Z M 533.289062 817.625 " clip-rule="nonzero"/></clipPath><clipPath id="46db9c4c52"><path d="M 226.960938 595.941406 L 276.230469 595.941406 C 277.441406 595.941406 278.429688 594.949219 278.429688 593.738281 L 278.429688 564.007812 C 278.429688 562.796875 279.417969 561.808594 280.632812 561.808594 L 332.761719 561.808594 C 333.972656 561.808594 334.960938 562.796875 334.960938 564.007812 L 334.960938 583.460938 C 334.960938 584.671875 335.953125 585.660156 337.164062 585.660156 L 372.90625 585.660156 C 374.117188 585.660156 375.105469 584.671875 375.105469 583.460938 L 375.105469 564.007812 C 375.105469 562.796875 376.097656 561.808594 377.308594 561.808594 L 425.65625 561.808594 C 426.867188 561.808594 427.855469 562.796875 427.855469 564.007812 L 427.855469 577.640625 C 427.855469 578.855469 428.847656 579.84375 430.058594 579.84375 L 467.546875 579.84375 C 468.757812 579.84375 469.746094 578.855469 469.746094 577.640625 L 469.746094 561.292969 C 469.746094 560.082031 470.734375 559.09375 471.949219 559.09375 L 513.21875 559.09375 C 514.429688 559.09375 515.417969 560.082031 515.417969 561.292969 L 515.417969 593.253906 C 515.417969 594.464844 516.40625 595.457031 517.621094 595.457031 L 553.980469 595.457031 C 555.105469 595.457031 556.046875 594.613281 556.171875 593.496094 L 559.820312 560.953125 C 559.828125 560.875 559.828125 560.789062 559.828125 560.710938 L 559.828125 492.058594 C 559.828125 490.847656 558.839844 489.859375 557.628906 489.859375 L 229.09375 489.859375 C 227.902344 489.859375 226.921875 490.816406 226.890625 492.011719 L 224.757812 593.691406 C 224.730469 594.921875 225.730469 595.941406 226.960938 595.941406 Z M 226.960938 595.941406 " clip-rule="nonzero"/></clipPath><clipPath id="a191b3016b"><path d="M 371 496.625 L 442 496.625 L 442 541 L 371 541 Z M 371 496.625 " clip-rule="nonzero"/></clipPath><clipPath id="2c864274ff"><path d="M 533.289062 817.625 L 252.414062 817.625 C 241.332031 817.625 232.351562 808.648438 232.351562 797.5625 L 232.351562 516.6875 C 232.351562 505.605469 241.332031 496.625 252.414062 496.625 L 533.289062 496.625 C 544.371094 496.625 553.351562 505.605469 553.351562 516.6875 L 553.351562 797.5625 C 553.351562 808.648438 544.371094 817.625 533.289062 817.625 Z M 533.289062 817.625 " clip-rule="nonzero"/></clipPath><clipPath id="6f55fd3a51"><path d="M 226.960938 595.941406 L 276.230469 595.941406 C 277.441406 595.941406 278.429688 594.949219 278.429688 593.738281 L 278.429688 564.007812 C 278.429688 562.796875 279.417969 561.808594 280.632812 561.808594 L 332.761719 561.808594 C 333.972656 561.808594 334.960938 562.796875 334.960938 564.007812 L 334.960938 583.460938 C 334.960938 584.671875 335.953125 585.660156 337.164062 585.660156 L 372.90625 585.660156 C 374.117188 585.660156 375.105469 584.671875 375.105469 583.460938 L 375.105469 564.007812 C 375.105469 562.796875 376.097656 561.808594 377.308594 561.808594 L 425.65625 561.808594 C 426.867188 561.808594 427.855469 562.796875 427.855469 564.007812 L 427.855469 577.640625 C 427.855469 578.855469 428.847656 579.84375 430.058594 579.84375 L 467.546875 579.84375 C 468.757812 579.84375 469.746094 578.855469 469.746094 577.640625 L 469.746094 561.292969 C 469.746094 560.082031 470.734375 559.09375 471.949219 559.09375 L 513.21875 559.09375 C 514.429688 559.09375 515.417969 560.082031 515.417969 561.292969 L 515.417969 593.253906 C 515.417969 594.464844 516.40625 595.457031 517.621094 595.457031 L 553.980469 595.457031 C 555.105469 595.457031 556.046875 594.613281 556.171875 593.496094 L 559.820312 560.953125 C 559.828125 560.875 559.828125 560.789062 559.828125 560.710938 L 559.828125 492.058594 C 559.828125 490.847656 558.839844 489.859375 557.628906 489.859375 L 229.09375 489.859375 C 227.902344 489.859375 226.921875 490.816406 226.890625 492.011719 L 224.757812 593.691406 C 224.730469 594.921875 225.730469 595.941406 226.960938 595.941406 Z M 226.960938 595.941406 " clip-rule="nonzero"/></clipPath><clipPath id="21175441ab"><path d="M 485 533 L 553.351562 533 L 553.351562 595.941406 L 485 595.941406 Z M 485 533 " clip-rule="nonzero"/></clipPath><clipPath id="2180df577f"><path d="M 533.289062 817.625 L 252.414062 817.625 C 241.332031 817.625 232.351562 808.648438 232.351562 797.5625 L 232.351562 516.6875 C 232.351562 505.605469 241.332031 496.625 252.414062 496.625 L 533.289062 496.625 C 544.371094 496.625 553.351562 505.605469 553.351562 516.6875 L 553.351562 797.5625 C 553.351562 808.648438 544.371094 817.625 533.289062 817.625 Z M 533.289062 817.625 " clip-rule="nonzero"/></clipPath><clipPath id="c8f3507851"><path d="M 226.960938 595.941406 L 276.230469 595.941406 C 277.441406 595.941406 278.429688 594.949219 278.429688 593.738281 L 278.429688 564.007812 C 278.429688 562.796875 279.417969 561.808594 280.632812 561.808594 L 332.761719 561.808594 C 333.972656 561.808594 334.960938 562.796875 334.960938 564.007812 L 334.960938 583.460938 C 334.960938 584.671875 335.953125 585.660156 337.164062 585.660156 L 372.90625 585.660156 C 374.117188 585.660156 375.105469 584.671875 375.105469 583.460938 L 375.105469 564.007812 C 375.105469 562.796875 376.097656 561.808594 377.308594 561.808594 L 425.65625 561.808594 C 426.867188 561.808594 427.855469 562.796875 427.855469 564.007812 L 427.855469 577.640625 C 427.855469 578.855469 428.847656 579.84375 430.058594 579.84375 L 467.546875 579.84375 C 468.757812 579.84375 469.746094 578.855469 469.746094 577.640625 L 469.746094 561.292969 C 469.746094 560.082031 470.734375 559.09375 471.949219 559.09375 L 513.21875 559.09375 C 514.429688 559.09375 515.417969 560.082031 515.417969 561.292969 L 515.417969 593.253906 C 515.417969 594.464844 516.40625 595.457031 517.621094 595.457031 L 553.980469 595.457031 C 555.105469 595.457031 556.046875 594.613281 556.171875 593.496094 L 559.820312 560.953125 C 559.828125 560.875 559.828125 560.789062 559.828125 560.710938 L 559.828125 492.058594 C 559.828125 490.847656 558.839844 489.859375 557.628906 489.859375 L 229.09375 489.859375 C 227.902344 489.859375 226.921875 490.816406 226.890625 492.011719 L 224.757812 593.691406 C 224.730469 594.921875 225.730469 595.941406 226.960938 595.941406 Z M 226.960938 595.941406 " clip-rule="nonzero"/></clipPath><clipPath id="08ca4d4672"><path d="M 295 705 L 333 705 L 333 742 L 295 742 Z M 295 705 " clip-rule="nonzero"/></clipPath><clipPath id="538428a4a6"><path d="M 533.289062 817.625 L 252.414062 817.625 C 241.332031 817.625 232.351562 808.648438 232.351562 797.5625 L 232.351562 516.6875 C 232.351562 505.605469 241.332031 496.625 252.414062 496.625 L 533.289062 496.625 C 544.371094 496.625 553.351562 505.605469 553.351562 516.6875 L 553.351562 797.5625 C 553.351562 808.648438 544.371094 817.625 533.289062 817.625 Z M 533.289062 817.625 " clip-rule="nonzero"/></clipPath><clipPath id="8da77f72b4"><path d="M 390 661 L 428 661 L 428 699 L 390 699 Z M 390 661 " clip-rule="nonzero"/></clipPath><clipPath id="2f9e5c4457"><path d="M 533.289062 817.625 L 252.414062 817.625 C 241.332031 817.625 232.351562 808.648438 232.351562 797.5625 L 232.351562 516.6875 C 232.351562 505.605469 241.332031 496.625 252.414062 496.625 L 533.289062 496.625 C 544.371094 496.625 553.351562 505.605469 553.351562 516.6875 L 553.351562 797.5625 C 553.351562 808.648438 544.371094 817.625 533.289062 817.625 Z M 533.289062 817.625 " clip-rule="nonzero"/></clipPath><clipPath id="f6d973e7f6"><path d="M 468 728 L 506 728 L 506 765 L 468 765 Z M 468 728 " clip-rule="nonzero"/></clipPath><clipPath id="0651bd170d"><path d="M 533.289062 817.625 L 252.414062 817.625 C 241.332031 817.625 232.351562 808.648438 232.351562 797.5625 L 232.351562 516.6875 C 232.351562 505.605469 241.332031 496.625 252.414062 496.625 L 533.289062 496.625 C 544.371094 496.625 553.351562 505.605469 553.351562 516.6875 L 553.351562 797.5625 C 553.351562 808.648438 544.371094 817.625 533.289062 817.625 Z M 533.289062 817.625 " clip-rule="nonzero"/></clipPath><clipPath id="2147e2c87f"><path d="M 546.703125 496.625 L 867.703125 496.625 L 867.703125 810 L 546.703125 810 Z M 546.703125 496.625 " clip-rule="nonzero"/></clipPath><clipPath id="ad7d3efea0"><path d="M 546.703125 528 L 867.703125 528 L 867.703125 635 L 546.703125 635 Z M 546.703125 528 " clip-rule="nonzero"/></clipPath><clipPath id="1f78a3bebc"><path d="M 847.640625 817.625 L 566.765625 817.625 C 555.683594 817.625 546.703125 808.648438 546.703125 797.5625 L 546.703125 516.6875 C 546.703125 505.605469 555.683594 496.625 566.765625 496.625 L 847.640625 496.625 C 858.722656 496.625 867.703125 505.605469 867.703125 516.6875 L 867.703125 797.5625 C 867.703125 808.648438 858.722656 817.625 847.640625 817.625 Z M 847.640625 817.625 " clip-rule="nonzero"/></clipPath><clipPath id="e02515a8fe"><path d="M 546.703125 496.625 L 867.703125 496.625 L 867.703125 596 L 546.703125 596 Z M 546.703125 496.625 " clip-rule="nonzero"/></clipPath><clipPath id="d795bc2084"><path d="M 847.640625 817.625 L 566.765625 817.625 C 555.683594 817.625 546.703125 808.648438 546.703125 797.5625 L 546.703125 516.6875 C 546.703125 505.605469 555.683594 496.625 566.765625 496.625 L 847.640625 496.625 C 858.722656 496.625 867.703125 505.605469 867.703125 516.6875 L 867.703125 797.5625 C 867.703125 808.648438 858.722656 817.625 847.640625 817.625 Z M 847.640625 817.625 " clip-rule="nonzero"/></clipPath><clipPath id="e1f832ff48"><path d="M 561 530 L 632 530 L 632 595.941406 L 561 595.941406 Z M 561 530 " clip-rule="nonzero"/></clipPath><clipPath id="e0de1eadef"><path d="M 847.640625 817.625 L 566.765625 817.625 C 555.683594 817.625 546.703125 808.648438 546.703125 797.5625 L 546.703125 516.6875 C 546.703125 505.605469 555.683594 496.625 566.765625 496.625 L 847.640625 496.625 C 858.722656 496.625 867.703125 505.605469 867.703125 516.6875 L 867.703125 797.5625 C 867.703125 808.648438 858.722656 817.625 847.640625 817.625 Z M 847.640625 817.625 " clip-rule="nonzero"/></clipPath><clipPath id="ed0387d22a"><path d="M 541.3125 595.941406 L 590.582031 595.941406 C 591.792969 595.941406 592.78125 594.949219 592.78125 593.738281 L 592.78125 564.007812 C 592.78125 562.796875 593.769531 561.808594 594.984375 561.808594 L 647.113281 561.808594 C 648.324219 561.808594 649.3125 562.796875 649.3125 564.007812 L 649.3125 583.460938 C 649.3125 584.671875 650.300781 585.660156 651.515625 585.660156 L 687.257812 585.660156 C 688.46875 585.660156 689.457031 584.671875 689.457031 583.460938 L 689.457031 564.007812 C 689.457031 562.796875 690.445312 561.808594 691.660156 561.808594 L 740.007812 561.808594 C 741.21875 561.808594 742.207031 562.796875 742.207031 564.007812 L 742.207031 577.640625 C 742.207031 578.855469 743.195312 579.84375 744.410156 579.84375 L 781.894531 579.84375 C 783.109375 579.84375 784.097656 578.855469 784.097656 577.640625 L 784.097656 561.292969 C 784.097656 560.082031 785.085938 559.09375 786.296875 559.09375 L 827.566406 559.09375 C 828.78125 559.09375 829.769531 560.082031 829.769531 561.292969 L 829.769531 593.253906 C 829.769531 594.464844 830.757812 595.457031 831.96875 595.457031 L 868.332031 595.457031 C 869.457031 595.457031 870.398438 594.613281 870.523438 593.496094 L 874.171875 560.953125 C 874.179688 560.875 874.179688 560.789062 874.179688 560.710938 L 874.179688 492.058594 C 874.179688 490.847656 873.191406 489.859375 871.980469 489.859375 L 543.445312 489.859375 C 542.25 489.859375 541.273438 490.816406 541.242188 492.011719 L 539.109375 593.691406 C 539.082031 594.921875 540.078125 595.941406 541.3125 595.941406 Z M 541.3125 595.941406 " clip-rule="nonzero"/></clipPath><clipPath id="b18c3904d7"><path d="M 685 496.625 L 757 496.625 L 757 541 L 685 541 Z M 685 496.625 " clip-rule="nonzero"/></clipPath><clipPath id="132e2f1c3d"><path d="M 847.640625 817.625 L 566.765625 817.625 C 555.683594 817.625 546.703125 808.648438 546.703125 797.5625 L 546.703125 516.6875 C 546.703125 505.605469 555.683594 496.625 566.765625 496.625 L 847.640625 496.625 C 858.722656 496.625 867.703125 505.605469 867.703125 516.6875 L 867.703125 797.5625 C 867.703125 808.648438 858.722656 817.625 847.640625 817.625 Z M 847.640625 817.625 " clip-rule="nonzero"/></clipPath><clipPath id="138c79f4a2"><path d="M 541.3125 595.941406 L 590.582031 595.941406 C 591.792969 595.941406 592.78125 594.949219 592.78125 593.738281 L 592.78125 564.007812 C 592.78125 562.796875 593.769531 561.808594 594.984375 561.808594 L 647.113281 561.808594 C 648.324219 561.808594 649.3125 562.796875 649.3125 564.007812 L 649.3125 583.460938 C 649.3125 584.671875 650.300781 585.660156 651.515625 585.660156 L 687.257812 585.660156 C 688.46875 585.660156 689.457031 584.671875 689.457031 583.460938 L 689.457031 564.007812 C 689.457031 562.796875 690.445312 561.808594 691.660156 561.808594 L 740.007812 561.808594 C 741.21875 561.808594 742.207031 562.796875 742.207031 564.007812 L 742.207031 577.640625 C 742.207031 578.855469 743.195312 579.84375 744.410156 579.84375 L 781.894531 579.84375 C 783.109375 579.84375 784.097656 578.855469 784.097656 577.640625 L 784.097656 561.292969 C 784.097656 560.082031 785.085938 559.09375 786.296875 559.09375 L 827.566406 559.09375 C 828.78125 559.09375 829.769531 560.082031 829.769531 561.292969 L 829.769531 593.253906 C 829.769531 594.464844 830.757812 595.457031 831.96875 595.457031 L 868.332031 595.457031 C 869.457031 595.457031 870.398438 594.613281 870.523438 593.496094 L 874.171875 560.953125 C 874.179688 560.875 874.179688 560.789062 874.179688 560.710938 L 874.179688 492.058594 C 874.179688 490.847656 873.191406 489.859375 871.980469 489.859375 L 543.445312 489.859375 C 542.25 489.859375 541.273438 490.816406 541.242188 492.011719 L 539.109375 593.691406 C 539.082031 594.921875 540.078125 595.941406 541.3125 595.941406 Z M 541.3125 595.941406 " clip-rule="nonzero"/></clipPath><clipPath id="b9e4c7e822"><path d="M 800 533 L 867.703125 533 L 867.703125 595.941406 L 800 595.941406 Z M 800 533 " clip-rule="nonzero"/></clipPath><clipPath id="e0910145ab"><path d="M 847.640625 817.625 L 566.765625 817.625 C 555.683594 817.625 546.703125 808.648438 546.703125 797.5625 L 546.703125 516.6875 C 546.703125 505.605469 555.683594 496.625 566.765625 496.625 L 847.640625 496.625 C 858.722656 496.625 867.703125 505.605469 867.703125 516.6875 L 867.703125 797.5625 C 867.703125 808.648438 858.722656 817.625 847.640625 817.625 Z M 847.640625 817.625 " clip-rule="nonzero"/></clipPath><clipPath id="5dc040814a"><path d="M 541.3125 595.941406 L 590.582031 595.941406 C 591.792969 595.941406 592.78125 594.949219 592.78125 593.738281 L 592.78125 564.007812 C 592.78125 562.796875 593.769531 561.808594 594.984375 561.808594 L 647.113281 561.808594 C 648.324219 561.808594 649.3125 562.796875 649.3125 564.007812 L 649.3125 583.460938 C 649.3125 584.671875 650.300781 585.660156 651.515625 585.660156 L 687.257812 585.660156 C 688.46875 585.660156 689.457031 584.671875 689.457031 583.460938 L 689.457031 564.007812 C 689.457031 562.796875 690.445312 561.808594 691.660156 561.808594 L 740.007812 561.808594 C 741.21875 561.808594 742.207031 562.796875 742.207031 564.007812 L 742.207031 577.640625 C 742.207031 578.855469 743.195312 579.84375 744.410156 579.84375 L 781.894531 579.84375 C 783.109375 579.84375 784.097656 578.855469 784.097656 577.640625 L 784.097656 561.292969 C 784.097656 560.082031 785.085938 559.09375 786.296875 559.09375 L 827.566406 559.09375 C 828.78125 559.09375 829.769531 560.082031 829.769531 561.292969 L 829.769531 593.253906 C 829.769531 594.464844 830.757812 595.457031 831.96875 595.457031 L 868.332031 595.457031 C 869.457031 595.457031 870.398438 594.613281 870.523438 593.496094 L 874.171875 560.953125 C 874.179688 560.875 874.179688 560.789062 874.179688 560.710938 L 874.179688 492.058594 C 874.179688 490.847656 873.191406 489.859375 871.980469 489.859375 L 543.445312 489.859375 C 542.25 489.859375 541.273438 490.816406 541.242188 492.011719 L 539.109375 593.691406 C 539.082031 594.921875 540.078125 595.941406 541.3125 595.941406 Z M 541.3125 595.941406 " clip-rule="nonzero"/></clipPath><clipPath id="a36839fc75"><path d="M 610 705 L 647 705 L 647 742 L 610 742 Z M 610 705 " clip-rule="nonzero"/></clipPath><clipPath id="2231db1b78"><path d="M 847.640625 817.625 L 566.765625 817.625 C 555.683594 817.625 546.703125 808.648438 546.703125 797.5625 L 546.703125 516.6875 C 546.703125 505.605469 555.683594 496.625 566.765625 496.625 L 847.640625 496.625 C 858.722656 496.625 867.703125 505.605469 867.703125 516.6875 L 867.703125 797.5625 C 867.703125 808.648438 858.722656 817.625 847.640625 817.625 Z M 847.640625 817.625 " clip-rule="nonzero"/></clipPath><clipPath id="4ebdb720d8"><path d="M 704 661 L 742 661 L 742 699 L 704 699 Z M 704 661 " clip-rule="nonzero"/></clipPath><clipPath id="707011dd5f"><path d="M 847.640625 817.625 L 566.765625 817.625 C 555.683594 817.625 546.703125 808.648438 546.703125 797.5625 L 546.703125 516.6875 C 546.703125 505.605469 555.683594 496.625 566.765625 496.625 L 847.640625 496.625 C 858.722656 496.625 867.703125 505.605469 867.703125 516.6875 L 867.703125 797.5625 C 867.703125 808.648438 858.722656 817.625 847.640625 817.625 Z M 847.640625 817.625 " clip-rule="nonzero"/></clipPath><clipPath id="073a7e565e"><path d="M 783 728 L 820 728 L 820 765 L 783 765 Z M 783 728 " clip-rule="nonzero"/></clipPath><clipPath id="3add4dbd63"><path d="M 847.640625 817.625 L 566.765625 817.625 C 555.683594 817.625 546.703125 808.648438 546.703125 797.5625 L 546.703125 516.6875 C 546.703125 505.605469 555.683594 496.625 566.765625 496.625 L 847.640625 496.625 C 858.722656 496.625 867.703125 505.605469 867.703125 516.6875 L 867.703125 797.5625 C 867.703125 808.648438 858.722656 817.625 847.640625 817.625 Z M 847.640625 817.625 " clip-rule="nonzero"/></clipPath><clipPath id="6460a23280"><path d="M 856.167969 496.625 L 1177.167969 496.625 L 1177.167969 810 L 856.167969 810 Z M 856.167969 496.625 " clip-rule="nonzero"/></clipPath><clipPath id="aa737ec04e"><path d="M 856.167969 528 L 1177.167969 528 L 1177.167969 635 L 856.167969 635 Z M 856.167969 528 " clip-rule="nonzero"/></clipPath><clipPath id="b7aff67a4f"><path d="M 1157.105469 817.625 L 876.230469 817.625 C 865.148438 817.625 856.167969 808.648438 856.167969 797.5625 L 856.167969 516.6875 C 856.167969 505.605469 865.148438 496.625 876.230469 496.625 L 1157.105469 496.625 C 1168.1875 496.625 1177.167969 505.605469 1177.167969 516.6875 L 1177.167969 797.5625 C 1177.167969 808.648438 1168.1875 817.625 1157.105469 817.625 Z M 1157.105469 817.625 " clip-rule="nonzero"/></clipPath><clipPath id="eee02bb2b0"><path d="M 856.167969 496.625 L 1177.167969 496.625 L 1177.167969 596 L 856.167969 596 Z M 856.167969 496.625 " clip-rule="nonzero"/></clipPath><clipPath id="22a966b6b3"><path d="M 1157.105469 817.625 L 876.230469 817.625 C 865.148438 817.625 856.167969 808.648438 856.167969 797.5625 L 856.167969 516.6875 C 856.167969 505.605469 865.148438 496.625 876.230469 496.625 L 1157.105469 496.625 C 1168.1875 496.625 1177.167969 505.605469 1177.167969 516.6875 L 1177.167969 797.5625 C 1177.167969 808.648438 1168.1875 817.625 1157.105469 817.625 Z M 1157.105469 817.625 " clip-rule="nonzero"/></clipPath><clipPath id="2b0b923993"><path d="M 871 530 L 942 530 L 942 595.941406 L 871 595.941406 Z M 871 530 " clip-rule="nonzero"/></clipPath><clipPath id="6c0bde1107"><path d="M 1157.105469 817.625 L 876.230469 817.625 C 865.148438 817.625 856.167969 808.648438 856.167969 797.5625 L 856.167969 516.6875 C 856.167969 505.605469 865.148438 496.625 876.230469 496.625 L 1157.105469 496.625 C 1168.1875 496.625 1177.167969 505.605469 1177.167969 516.6875 L 1177.167969 797.5625 C 1177.167969 808.648438 1168.1875 817.625 1157.105469 817.625 Z M 1157.105469 817.625 " clip-rule="nonzero"/></clipPath><clipPath id="8309948428"><path d="M 850.777344 595.941406 L 900.046875 595.941406 C 901.257812 595.941406 902.246094 594.949219 902.246094 593.738281 L 902.246094 564.007812 C 902.246094 562.796875 903.234375 561.808594 904.449219 561.808594 L 956.578125 561.808594 C 957.789062 561.808594 958.777344 562.796875 958.777344 564.007812 L 958.777344 583.460938 C 958.777344 584.671875 959.769531 585.660156 960.980469 585.660156 L 996.722656 585.660156 C 997.933594 585.660156 998.921875 584.671875 998.921875 583.460938 L 998.921875 564.007812 C 998.921875 562.796875 999.910156 561.808594 1001.125 561.808594 L 1049.472656 561.808594 C 1050.683594 561.808594 1051.671875 562.796875 1051.671875 564.007812 L 1051.671875 577.640625 C 1051.671875 578.855469 1052.660156 579.84375 1053.875 579.84375 L 1091.363281 579.84375 C 1092.574219 579.84375 1093.5625 578.855469 1093.5625 577.640625 L 1093.5625 561.292969 C 1093.5625 560.082031 1094.550781 559.09375 1095.765625 559.09375 L 1137.035156 559.09375 C 1138.246094 559.09375 1139.234375 560.082031 1139.234375 561.292969 L 1139.234375 593.253906 C 1139.234375 594.464844 1140.222656 595.457031 1141.433594 595.457031 L 1177.796875 595.457031 C 1178.921875 595.457031 1179.863281 594.613281 1179.988281 593.496094 L 1183.636719 560.953125 C 1183.644531 560.875 1183.644531 560.789062 1183.644531 560.710938 L 1183.644531 492.058594 C 1183.644531 490.847656 1182.65625 489.859375 1181.445312 489.859375 L 852.910156 489.859375 C 851.71875 489.859375 850.738281 490.816406 850.707031 492.011719 L 848.574219 593.691406 C 848.546875 594.921875 849.546875 595.941406 850.777344 595.941406 Z M 850.777344 595.941406 " clip-rule="nonzero"/></clipPath><clipPath id="1f8976e582"><path d="M 995 496.625 L 1066 496.625 L 1066 541 L 995 541 Z M 995 496.625 " clip-rule="nonzero"/></clipPath><clipPath id="22a45b908b"><path d="M 1157.105469 817.625 L 876.230469 817.625 C 865.148438 817.625 856.167969 808.648438 856.167969 797.5625 L 856.167969 516.6875 C 856.167969 505.605469 865.148438 496.625 876.230469 496.625 L 1157.105469 496.625 C 1168.1875 496.625 1177.167969 505.605469 1177.167969 516.6875 L 1177.167969 797.5625 C 1177.167969 808.648438 1168.1875 817.625 1157.105469 817.625 Z M 1157.105469 817.625 " clip-rule="nonzero"/></clipPath><clipPath id="cc6a273a04"><path d="M 850.777344 595.941406 L 900.046875 595.941406 C 901.257812 595.941406 902.246094 594.949219 902.246094 593.738281 L 902.246094 564.007812 C 902.246094 562.796875 903.234375 561.808594 904.449219 561.808594 L 956.578125 561.808594 C 957.789062 561.808594 958.777344 562.796875 958.777344 564.007812 L 958.777344 583.460938 C 958.777344 584.671875 959.769531 585.660156 960.980469 585.660156 L 996.722656 585.660156 C 997.933594 585.660156 998.921875 584.671875 998.921875 583.460938 L 998.921875 564.007812 C 998.921875 562.796875 999.910156 561.808594 1001.125 561.808594 L 1049.472656 561.808594 C 1050.683594 561.808594 1051.671875 562.796875 1051.671875 564.007812 L 1051.671875 577.640625 C 1051.671875 578.855469 1052.660156 579.84375 1053.875 579.84375 L 1091.363281 579.84375 C 1092.574219 579.84375 1093.5625 578.855469 1093.5625 577.640625 L 1093.5625 561.292969 C 1093.5625 560.082031 1094.550781 559.09375 1095.765625 559.09375 L 1137.035156 559.09375 C 1138.246094 559.09375 1139.234375 560.082031 1139.234375 561.292969 L 1139.234375 593.253906 C 1139.234375 594.464844 1140.222656 595.457031 1141.433594 595.457031 L 1177.796875 595.457031 C 1178.921875 595.457031 1179.863281 594.613281 1179.988281 593.496094 L 1183.636719 560.953125 C 1183.644531 560.875 1183.644531 560.789062 1183.644531 560.710938 L 1183.644531 492.058594 C 1183.644531 490.847656 1182.65625 489.859375 1181.445312 489.859375 L 852.910156 489.859375 C 851.71875 489.859375 850.738281 490.816406 850.707031 492.011719 L 848.574219 593.691406 C 848.546875 594.921875 849.546875 595.941406 850.777344 595.941406 Z M 850.777344 595.941406 " clip-rule="nonzero"/></clipPath><clipPath id="9e71341e40"><path d="M 1109 533 L 1177.167969 533 L 1177.167969 595.941406 L 1109 595.941406 Z M 1109 533 " clip-rule="nonzero"/></clipPath><clipPath id="f170a0c57e"><path d="M 1157.105469 817.625 L 876.230469 817.625 C 865.148438 817.625 856.167969 808.648438 856.167969 797.5625 L 856.167969 516.6875 C 856.167969 505.605469 865.148438 496.625 876.230469 496.625 L 1157.105469 496.625 C 1168.1875 496.625 1177.167969 505.605469 1177.167969 516.6875 L 1177.167969 797.5625 C 1177.167969 808.648438 1168.1875 817.625 1157.105469 817.625 Z M 1157.105469 817.625 " clip-rule="nonzero"/></clipPath><clipPath id="4c38120742"><path d="M 850.777344 595.941406 L 900.046875 595.941406 C 901.257812 595.941406 902.246094 594.949219 902.246094 593.738281 L 902.246094 564.007812 C 902.246094 562.796875 903.234375 561.808594 904.449219 561.808594 L 956.578125 561.808594 C 957.789062 561.808594 958.777344 562.796875 958.777344 564.007812 L 958.777344 583.460938 C 958.777344 584.671875 959.769531 585.660156 960.980469 585.660156 L 996.722656 585.660156 C 997.933594 585.660156 998.921875 584.671875 998.921875 583.460938 L 998.921875 564.007812 C 998.921875 562.796875 999.910156 561.808594 1001.125 561.808594 L 1049.472656 561.808594 C 1050.683594 561.808594 1051.671875 562.796875 1051.671875 564.007812 L 1051.671875 577.640625 C 1051.671875 578.855469 1052.660156 579.84375 1053.875 579.84375 L 1091.363281 579.84375 C 1092.574219 579.84375 1093.5625 578.855469 1093.5625 577.640625 L 1093.5625 561.292969 C 1093.5625 560.082031 1094.550781 559.09375 1095.765625 559.09375 L 1137.035156 559.09375 C 1138.246094 559.09375 1139.234375 560.082031 1139.234375 561.292969 L 1139.234375 593.253906 C 1139.234375 594.464844 1140.222656 595.457031 1141.433594 595.457031 L 1177.796875 595.457031 C 1178.921875 595.457031 1179.863281 594.613281 1179.988281 593.496094 L 1183.636719 560.953125 C 1183.644531 560.875 1183.644531 560.789062 1183.644531 560.710938 L 1183.644531 492.058594 C 1183.644531 490.847656 1182.65625 489.859375 1181.445312 489.859375 L 852.910156 489.859375 C 851.71875 489.859375 850.738281 490.816406 850.707031 492.011719 L 848.574219 593.691406 C 848.546875 594.921875 849.546875 595.941406 850.777344 595.941406 Z M 850.777344 595.941406 " clip-rule="nonzero"/></clipPath><clipPath id="d0ecd86598"><path d="M 919 705 L 957 705 L 957 742 L 919 742 Z M 919 705 " clip-rule="nonzero"/></clipPath><clipPath id="cc528330b7"><path d="M 1157.105469 817.625 L 876.230469 817.625 C 865.148438 817.625 856.167969 808.648438 856.167969 797.5625 L 856.167969 516.6875 C 856.167969 505.605469 865.148438 496.625 876.230469 496.625 L 1157.105469 496.625 C 1168.1875 496.625 1177.167969 505.605469 1177.167969 516.6875 L 1177.167969 797.5625 C 1177.167969 808.648438 1168.1875 817.625 1157.105469 817.625 Z M 1157.105469 817.625 " clip-rule="nonzero"/></clipPath><clipPath id="d25f0bb062"><path d="M 1014 661 L 1051 661 L 1051 699 L 1014 699 Z M 1014 661 " clip-rule="nonzero"/></clipPath><clipPath id="9496c1c03f"><path d="M 1157.105469 817.625 L 876.230469 817.625 C 865.148438 817.625 856.167969 808.648438 856.167969 797.5625 L 856.167969 516.6875 C 856.167969 505.605469 865.148438 496.625 876.230469 496.625 L 1157.105469 496.625 C 1168.1875 496.625 1177.167969 505.605469 1177.167969 516.6875 L 1177.167969 797.5625 C 1177.167969 808.648438 1168.1875 817.625 1157.105469 817.625 Z M 1157.105469 817.625 " clip-rule="nonzero"/></clipPath><clipPath id="6863570e0e"><path d="M 1092 728 L 1130 728 L 1130 765 L 1092 765 Z M 1092 728 " clip-rule="nonzero"/></clipPath><clipPath id="e9da41f109"><path d="M 1157.105469 817.625 L 876.230469 817.625 C 865.148438 817.625 856.167969 808.648438 856.167969 797.5625 L 856.167969 516.6875 C 856.167969 505.605469 865.148438 496.625 876.230469 496.625 L 1157.105469 496.625 C 1168.1875 496.625 1177.167969 505.605469 1177.167969 516.6875 L 1177.167969 797.5625 C 1177.167969 808.648438 1168.1875 817.625 1157.105469 817.625 Z M 1157.105469 817.625 " clip-rule="nonzero"/></clipPath><clipPath id="675d29fbc4"><path d="M 1163.371094 496.625 L 1440 496.625 L 1440 810 L 1163.371094 810 Z M 1163.371094 496.625 " clip-rule="nonzero"/></clipPath><clipPath id="e5fd053492"><path d="M 1163.371094 528 L 1440 528 L 1440 635 L 1163.371094 635 Z M 1163.371094 528 " clip-rule="nonzero"/></clipPath><clipPath id="ed9d374650"><path d="M 1464.308594 817.625 L 1183.433594 817.625 C 1172.351562 817.625 1163.371094 808.648438 1163.371094 797.5625 L 1163.371094 516.6875 C 1163.371094 505.605469 1172.351562 496.625 1183.433594 496.625 L 1464.308594 496.625 C 1475.394531 496.625 1484.371094 505.605469 1484.371094 516.6875 L 1484.371094 797.5625 C 1484.371094 808.648438 1475.394531 817.625 1464.308594 817.625 Z M 1464.308594 817.625 " clip-rule="nonzero"/></clipPath><clipPath id="f4556968aa"><path d="M 1163.371094 496.625 L 1440 496.625 L 1440 596 L 1163.371094 596 Z M 1163.371094 496.625 " clip-rule="nonzero"/></clipPath><clipPath id="b176b4591f"><path d="M 1464.308594 817.625 L 1183.433594 817.625 C 1172.351562 817.625 1163.371094 808.648438 1163.371094 797.5625 L 1163.371094 516.6875 C 1163.371094 505.605469 1172.351562 496.625 1183.433594 496.625 L 1464.308594 496.625 C 1475.394531 496.625 1484.371094 505.605469 1484.371094 516.6875 L 1484.371094 797.5625 C 1484.371094 808.648438 1475.394531 817.625 1464.308594 817.625 Z M 1464.308594 817.625 " clip-rule="nonzero"/></clipPath><clipPath id="b1dc6ca3e1"><path d="M 1178 530 L 1249 530 L 1249 595.941406 L 1178 595.941406 Z M 1178 530 " clip-rule="nonzero"/></clipPath><clipPath id="36a62e8661"><path d="M 1464.308594 817.625 L 1183.433594 817.625 C 1172.351562 817.625 1163.371094 808.648438 1163.371094 797.5625 L 1163.371094 516.6875 C 1163.371094 505.605469 1172.351562 496.625 1183.433594 496.625 L 1464.308594 496.625 C 1475.394531 496.625 1484.371094 505.605469 1484.371094 516.6875 L 1484.371094 797.5625 C 1484.371094 808.648438 1475.394531 817.625 1464.308594 817.625 Z M 1464.308594 817.625 " clip-rule="nonzero"/></clipPath><clipPath id="6d82868014"><path d="M 1157.980469 595.941406 L 1207.25 595.941406 C 1208.460938 595.941406 1209.449219 594.949219 1209.449219 593.738281 L 1209.449219 564.007812 C 1209.449219 562.796875 1210.441406 561.808594 1211.652344 561.808594 L 1263.78125 561.808594 C 1264.992188 561.808594 1265.984375 562.796875 1265.984375 564.007812 L 1265.984375 583.460938 C 1265.984375 584.671875 1266.972656 585.660156 1268.183594 585.660156 L 1303.925781 585.660156 C 1305.136719 585.660156 1306.128906 584.671875 1306.128906 583.460938 L 1306.128906 564.007812 C 1306.128906 562.796875 1307.117188 561.808594 1308.328125 561.808594 L 1356.675781 561.808594 C 1357.886719 561.808594 1358.878906 562.796875 1358.878906 564.007812 L 1358.878906 577.640625 C 1358.878906 578.855469 1359.867188 579.84375 1361.078125 579.84375 L 1398.566406 579.84375 C 1399.777344 579.84375 1400.765625 578.855469 1400.765625 577.640625 L 1400.765625 561.292969 C 1400.765625 560.082031 1401.757812 559.09375 1402.96875 559.09375 L 1444.238281 559.09375 C 1445.449219 559.09375 1446.4375 560.082031 1446.4375 561.292969 L 1446.4375 593.253906 C 1446.4375 594.464844 1447.429688 595.457031 1448.640625 595.457031 L 1485.003906 595.457031 C 1486.128906 595.457031 1487.066406 594.613281 1487.195312 593.496094 L 1490.839844 560.953125 C 1490.851562 560.875 1490.851562 560.789062 1490.851562 560.710938 L 1490.851562 492.058594 C 1490.851562 490.847656 1489.859375 489.859375 1488.648438 489.859375 L 1160.113281 489.859375 C 1158.921875 489.859375 1157.941406 490.816406 1157.914062 492.011719 L 1155.78125 593.691406 C 1155.75 594.921875 1156.75 595.941406 1157.980469 595.941406 Z M 1157.980469 595.941406 " clip-rule="nonzero"/></clipPath><clipPath id="819e0ab832"><path d="M 1302 496.625 L 1373 496.625 L 1373 541 L 1302 541 Z M 1302 496.625 " clip-rule="nonzero"/></clipPath><clipPath id="a704f0c177"><path d="M 1464.308594 817.625 L 1183.433594 817.625 C 1172.351562 817.625 1163.371094 808.648438 1163.371094 797.5625 L 1163.371094 516.6875 C 1163.371094 505.605469 1172.351562 496.625 1183.433594 496.625 L 1464.308594 496.625 C 1475.394531 496.625 1484.371094 505.605469 1484.371094 516.6875 L 1484.371094 797.5625 C 1484.371094 808.648438 1475.394531 817.625 1464.308594 817.625 Z M 1464.308594 817.625 " clip-rule="nonzero"/></clipPath><clipPath id="e99ee31bf4"><path d="M 1157.980469 595.941406 L 1207.25 595.941406 C 1208.460938 595.941406 1209.449219 594.949219 1209.449219 593.738281 L 1209.449219 564.007812 C 1209.449219 562.796875 1210.441406 561.808594 1211.652344 561.808594 L 1263.78125 561.808594 C 1264.992188 561.808594 1265.984375 562.796875 1265.984375 564.007812 L 1265.984375 583.460938 C 1265.984375 584.671875 1266.972656 585.660156 1268.183594 585.660156 L 1303.925781 585.660156 C 1305.136719 585.660156 1306.128906 584.671875 1306.128906 583.460938 L 1306.128906 564.007812 C 1306.128906 562.796875 1307.117188 561.808594 1308.328125 561.808594 L 1356.675781 561.808594 C 1357.886719 561.808594 1358.878906 562.796875 1358.878906 564.007812 L 1358.878906 577.640625 C 1358.878906 578.855469 1359.867188 579.84375 1361.078125 579.84375 L 1398.566406 579.84375 C 1399.777344 579.84375 1400.765625 578.855469 1400.765625 577.640625 L 1400.765625 561.292969 C 1400.765625 560.082031 1401.757812 559.09375 1402.96875 559.09375 L 1444.238281 559.09375 C 1445.449219 559.09375 1446.4375 560.082031 1446.4375 561.292969 L 1446.4375 593.253906 C 1446.4375 594.464844 1447.429688 595.457031 1448.640625 595.457031 L 1485.003906 595.457031 C 1486.128906 595.457031 1487.066406 594.613281 1487.195312 593.496094 L 1490.839844 560.953125 C 1490.851562 560.875 1490.851562 560.789062 1490.851562 560.710938 L 1490.851562 492.058594 C 1490.851562 490.847656 1489.859375 489.859375 1488.648438 489.859375 L 1160.113281 489.859375 C 1158.921875 489.859375 1157.941406 490.816406 1157.914062 492.011719 L 1155.78125 593.691406 C 1155.75 594.921875 1156.75 595.941406 1157.980469 595.941406 Z M 1157.980469 595.941406 " clip-rule="nonzero"/></clipPath><clipPath id="2f1b9f4da4"><path d="M 1416 533 L 1440 533 L 1440 595.941406 L 1416 595.941406 Z M 1416 533 " clip-rule="nonzero"/></clipPath><clipPath id="a59e9db82d"><path d="M 1464.308594 817.625 L 1183.433594 817.625 C 1172.351562 817.625 1163.371094 808.648438 1163.371094 797.5625 L 1163.371094 516.6875 C 1163.371094 505.605469 1172.351562 496.625 1183.433594 496.625 L 1464.308594 496.625 C 1475.394531 496.625 1484.371094 505.605469 1484.371094 516.6875 L 1484.371094 797.5625 C 1484.371094 808.648438 1475.394531 817.625 1464.308594 817.625 Z M 1464.308594 817.625 " clip-rule="nonzero"/></clipPath><clipPath id="e229d638e5"><path d="M 1157.980469 595.941406 L 1207.25 595.941406 C 1208.460938 595.941406 1209.449219 594.949219 1209.449219 593.738281 L 1209.449219 564.007812 C 1209.449219 562.796875 1210.441406 561.808594 1211.652344 561.808594 L 1263.78125 561.808594 C 1264.992188 561.808594 1265.984375 562.796875 1265.984375 564.007812 L 1265.984375 583.460938 C 1265.984375 584.671875 1266.972656 585.660156 1268.183594 585.660156 L 1303.925781 585.660156 C 1305.136719 585.660156 1306.128906 584.671875 1306.128906 583.460938 L 1306.128906 564.007812 C 1306.128906 562.796875 1307.117188 561.808594 1308.328125 561.808594 L 1356.675781 561.808594 C 1357.886719 561.808594 1358.878906 562.796875 1358.878906 564.007812 L 1358.878906 577.640625 C 1358.878906 578.855469 1359.867188 579.84375 1361.078125 579.84375 L 1398.566406 579.84375 C 1399.777344 579.84375 1400.765625 578.855469 1400.765625 577.640625 L 1400.765625 561.292969 C 1400.765625 560.082031 1401.757812 559.09375 1402.96875 559.09375 L 1444.238281 559.09375 C 1445.449219 559.09375 1446.4375 560.082031 1446.4375 561.292969 L 1446.4375 593.253906 C 1446.4375 594.464844 1447.429688 595.457031 1448.640625 595.457031 L 1485.003906 595.457031 C 1486.128906 595.457031 1487.066406 594.613281 1487.195312 593.496094 L 1490.839844 560.953125 C 1490.851562 560.875 1490.851562 560.789062 1490.851562 560.710938 L 1490.851562 492.058594 C 1490.851562 490.847656 1489.859375 489.859375 1488.648438 489.859375 L 1160.113281 489.859375 C 1158.921875 489.859375 1157.941406 490.816406 1157.914062 492.011719 L 1155.78125 593.691406 C 1155.75 594.921875 1156.75 595.941406 1157.980469 595.941406 Z M 1157.980469 595.941406 " clip-rule="nonzero"/></clipPath><clipPath id="67cbe21b93"><path d="M 1226 705 L 1264 705 L 1264 742 L 1226 742 Z M 1226 705 " clip-rule="nonzero"/></clipPath><clipPath id="791cfe2bec"><path d="M 1464.308594 817.625 L 1183.433594 817.625 C 1172.351562 817.625 1163.371094 808.648438 1163.371094 797.5625 L 1163.371094 516.6875 C 1163.371094 505.605469 1172.351562 496.625 1183.433594 496.625 L 1464.308594 496.625 C 1475.394531 496.625 1484.371094 505.605469 1484.371094 516.6875 L 1484.371094 797.5625 C 1484.371094 808.648438 1475.394531 817.625 1464.308594 817.625 Z M 1464.308594 817.625 " clip-rule="nonzero"/></clipPath><clipPath id="c36d8b7800"><path d="M 1321 661 L 1359 661 L 1359 699 L 1321 699 Z M 1321 661 " clip-rule="nonzero"/></clipPath><clipPath id="f74611b357"><path d="M 1464.308594 817.625 L 1183.433594 817.625 C 1172.351562 817.625 1163.371094 808.648438 1163.371094 797.5625 L 1163.371094 516.6875 C 1163.371094 505.605469 1172.351562 496.625 1183.433594 496.625 L 1464.308594 496.625 C 1475.394531 496.625 1484.371094 505.605469 1484.371094 516.6875 L 1484.371094 797.5625 C 1484.371094 808.648438 1475.394531 817.625 1464.308594 817.625 Z M 1464.308594 817.625 " clip-rule="nonzero"/></clipPath><clipPath id="bbb58c613b"><path d="M 1399 728 L 1437 728 L 1437 765 L 1399 765 Z M 1399 728 " clip-rule="nonzero"/></clipPath><clipPath id="27282a947c"><path d="M 1464.308594 817.625 L 1183.433594 817.625 C 1172.351562 817.625 1163.371094 808.648438 1163.371094 797.5625 L 1163.371094 516.6875 C 1163.371094 505.605469 1172.351562 496.625 1183.433594 496.625 L 1464.308594 496.625 C 1475.394531 496.625 1484.371094 505.605469 1484.371094 516.6875 L 1484.371094 797.5625 C 1484.371094 808.648438 1475.394531 817.625 1464.308594 817.625 Z M 1464.308594 817.625 " clip-rule="nonzero"/></clipPath></defs><g clip-path="url(#d68d5578b0)"><path fill="#874c2b" d="M 221.296875 817.625 L -59.578125 817.625 C -70.664062 817.625 -79.640625 808.648438 -79.640625 797.5625 L -79.640625 516.6875 C -79.640625 505.605469 -70.664062 496.625 -59.578125 496.625 L 221.296875 496.625 C 232.378906 496.625 241.359375 505.605469 241.359375 516.6875 L 241.359375 797.5625 C 241.359375 808.648438 232.378906 817.625 221.296875 817.625 Z M 221.296875 817.625 " fill-opacity="1" fill-rule="nonzero"/></g><g clip-path="url(#33fff0e2b8)"><g clip-path="url(#374896da97)"><path fill="#7d4024" d="M -84.453125 634.824219 L -20.734375 634.824219 C -19.523438 634.824219 -18.53125 633.835938 -18.53125 632.621094 L -18.53125 602.890625 C -18.53125 601.679688 -17.542969 600.691406 -16.332031 600.691406 L 14.753906 600.691406 C 15.96875 600.691406 16.957031 601.679688 16.957031 602.890625 L 16.957031 622.34375 C 16.957031 623.554688 17.945312 624.546875 19.15625 624.546875 L 73.808594 624.546875 C 75.019531 624.546875 76.011719 623.554688 76.011719 622.34375 L 76.011719 602.890625 C 76.011719 601.679688 77 600.691406 78.210938 600.691406 L 101.929688 600.691406 C 103.140625 600.691406 104.128906 601.679688 104.128906 602.890625 L 104.128906 616.527344 C 104.128906 617.738281 105.121094 618.726562 106.332031 618.726562 L 164.183594 618.726562 C 165.394531 618.726562 166.382812 617.738281 166.382812 616.527344 L 166.382812 600.175781 C 166.382812 598.964844 167.371094 597.976562 168.585938 597.976562 L 186.195312 597.976562 C 187.40625 597.976562 188.394531 598.964844 188.394531 600.175781 L 188.394531 632.136719 C 188.394531 633.351562 189.382812 634.339844 190.597656 634.339844 L 242.570312 634.339844 C 243.695312 634.339844 244.636719 633.496094 244.761719 632.378906 L 248.40625 599.839844 C 248.417969 599.761719 248.417969 599.671875 248.417969 599.59375 L 248.417969 530.941406 C 248.417969 529.730469 247.429688 528.742188 246.214844 528.742188 L -82.316406 528.742188 C -83.511719 528.742188 -84.488281 529.703125 -84.519531 530.894531 L -86.652344 632.574219 C -86.679688 633.804688 -85.683594 634.824219 -84.453125 634.824219 Z M -84.453125 634.824219 " fill-opacity="1" fill-rule="nonzero"/></g></g><g clip-path="url(#a402ce0203)"><g clip-path="url(#79f2256720)"><path fill="#48a831" d="M -85.03125 595.941406 L -35.765625 595.941406 C -34.550781 595.941406 -33.5625 594.949219 -33.5625 593.738281 L -33.5625 564.007812 C -33.5625 562.796875 -32.574219 561.808594 -31.363281 561.808594 L 20.769531 561.808594 C 21.980469 561.808594 22.96875 562.796875 22.96875 564.007812 L 22.96875 583.460938 C 22.96875 584.671875 23.957031 585.660156 25.171875 585.660156 L 60.914062 585.660156 C 62.125 585.660156 63.113281 584.671875 63.113281 583.460938 L 63.113281 564.007812 C 63.113281 562.796875 64.101562 561.808594 65.316406 561.808594 L 113.664062 561.808594 C 114.875 561.808594 115.863281 562.796875 115.863281 564.007812 L 115.863281 577.640625 C 115.863281 578.855469 116.851562 579.84375 118.066406 579.84375 L 155.550781 579.84375 C 156.765625 579.84375 157.753906 578.855469 157.753906 577.640625 L 157.753906 561.292969 C 157.753906 560.082031 158.742188 559.09375 159.953125 559.09375 L 201.222656 559.09375 C 202.4375 559.09375 203.425781 560.082031 203.425781 561.292969 L 203.425781 593.253906 C 203.425781 594.464844 204.414062 595.457031 205.625 595.457031 L 241.988281 595.457031 C 243.113281 595.457031 244.054688 594.613281 244.179688 593.496094 L 247.824219 560.953125 C 247.835938 560.875 247.835938 560.789062 247.835938 560.710938 L 247.835938 492.058594 C 247.835938 490.847656 246.847656 489.859375 245.632812 489.859375 L -82.898438 489.859375 C -84.09375 489.859375 -85.070312 490.816406 -85.101562 492.011719 L -87.234375 593.691406 C -87.261719 594.921875 -86.265625 595.941406 -85.03125 595.941406 Z M -85.03125 595.941406 " fill-opacity="1" fill-rule="nonzero"/></g></g><g clip-path="url(#3b32aea941)"><g clip-path="url(#0d9ea8750e)"><g clip-path="url(#1aac1160a3)"><path fill="#60bd3f" d="M 4.195312 600.980469 L -63.175781 600.980469 C -63.960938 600.980469 -64.59375 600.34375 -64.59375 599.566406 L -64.59375 532.195312 C -64.59375 531.410156 -63.953125 530.777344 -63.175781 530.777344 L 4.1875 530.777344 C 4.972656 530.777344 5.601562 531.417969 5.601562 532.195312 L 5.601562 599.558594 C 5.613281 600.34375 4.972656 600.980469 4.195312 600.980469 Z M 4.195312 600.980469 " fill-opacity="1" fill-rule="nonzero"/></g></g></g><g clip-path="url(#52ca7fd621)"><g clip-path="url(#749552f080)"><g clip-path="url(#5adaa9b48d)"><path fill="#60bd3f" d="M 59.527344 495.160156 L 59.527344 539.15625 C 59.527344 539.941406 60.164062 540.570312 60.941406 540.570312 L 128.304688 540.570312 C 129.089844 540.570312 129.71875 539.933594 129.71875 539.15625 L 129.71875 495.160156 Z M 59.527344 495.160156 " fill-opacity="1" fill-rule="nonzero"/></g></g></g><g clip-path="url(#0419d7d6c6)"><g clip-path="url(#f2e7af0207)"><g clip-path="url(#f281cea684)"><path fill="#60bd3f" d="M 242.734375 603.699219 L 175.371094 603.699219 C 174.585938 603.699219 173.957031 603.058594 173.957031 602.28125 L 173.957031 534.910156 C 173.957031 534.125 174.597656 533.492188 175.371094 533.492188 L 242.734375 533.492188 C 243.519531 533.492188 244.152344 534.132812 244.152344 534.910156 L 244.152344 602.273438 C 244.152344 603.058594 243.511719 603.699219 242.734375 603.699219 Z M 242.734375 603.699219 " fill-opacity="1" fill-rule="nonzero"/></g></g></g><g clip-path="url(#f1266c6574)"><g clip-path="url(#ecb37a0c36)"><path fill="#7d4024" d="M 17.859375 741.679688 L -13.617188 741.679688 C -14.992188 741.679688 -16.109375 740.566406 -16.109375 739.191406 L -16.109375 707.714844 C -16.109375 706.335938 -14.992188 705.222656 -13.617188 705.222656 L 17.859375 705.222656 C 19.234375 705.222656 20.351562 706.335938 20.351562 707.714844 L 20.351562 739.191406 C 20.351562 740.566406 19.234375 741.679688 17.859375 741.679688 Z M 17.859375 741.679688 " fill-opacity="1" fill-rule="nonzero"/></g></g><g clip-path="url(#6ab4064a2f)"><g clip-path="url(#febbab99b9)"><path fill="#7d4024" d="M 112.59375 698.242188 L 81.121094 698.242188 C 79.742188 698.242188 78.628906 697.125 78.628906 695.75 L 78.628906 664.273438 C 78.628906 662.894531 79.742188 661.78125 81.121094 661.78125 L 112.59375 661.78125 C 113.972656 661.78125 115.085938 662.894531 115.085938 664.273438 L 115.085938 695.75 C 115.085938 697.125 113.972656 698.242188 112.59375 698.242188 Z M 112.59375 698.242188 " fill-opacity="1" fill-rule="nonzero"/></g></g><g clip-path="url(#17ea35c4e8)"><g clip-path="url(#4902bc1042)"><path fill="#7d4024" d="M 190.945312 764.761719 L 159.46875 764.761719 C 158.09375 764.761719 156.976562 763.644531 156.976562 762.269531 L 156.976562 730.792969 C 156.976562 729.414062 158.09375 728.300781 159.46875 728.300781 L 190.945312 728.300781 C 192.320312 728.300781 193.4375 729.414062 193.4375 730.792969 L 193.4375 762.269531 C 193.4375 763.644531 192.320312 764.761719 190.945312 764.761719 Z M 190.945312 764.761719 " fill-opacity="1" fill-rule="nonzero"/></g></g><g clip-path="url(#ab8a2886ae)"><path fill="#874c2b" d="M 533.289062 817.625 L 252.414062 817.625 C 241.332031 817.625 232.351562 808.648438 232.351562 797.5625 L 232.351562 516.6875 C 232.351562 505.605469 241.332031 496.625 252.414062 496.625 L 533.289062 496.625 C 544.371094 496.625 553.351562 505.605469 553.351562 516.6875 L 553.351562 797.5625 C 553.351562 808.648438 544.371094 817.625 533.289062 817.625 Z M 533.289062 817.625 " fill-opacity="1" fill-rule="nonzero"/></g><g clip-path="url(#1280fd2217)"><g clip-path="url(#c28764d0ed)"><path fill="#7d4024" d="M 227.542969 634.824219 L 291.257812 634.824219 C 292.472656 634.824219 293.460938 633.835938 293.460938 632.621094 L 293.460938 602.890625 C 293.460938 601.679688 294.449219 600.691406 295.660156 600.691406 L 326.75 600.691406 C 327.960938 600.691406 328.949219 601.679688 328.949219 602.890625 L 328.949219 622.34375 C 328.949219 623.554688 329.941406 624.546875 331.152344 624.546875 L 385.800781 624.546875 C 387.015625 624.546875 388.003906 623.554688 388.003906 622.34375 L 388.003906 602.890625 C 388.003906 601.679688 388.992188 600.691406 390.203125 600.691406 L 413.921875 600.691406 C 415.136719 600.691406 416.125 601.679688 416.125 602.890625 L 416.125 616.527344 C 416.125 617.738281 417.113281 618.726562 418.324219 618.726562 L 476.175781 618.726562 C 477.386719 618.726562 478.375 617.738281 478.375 616.527344 L 478.375 600.175781 C 478.375 598.964844 479.367188 597.976562 480.578125 597.976562 L 498.1875 597.976562 C 499.398438 597.976562 500.386719 598.964844 500.386719 600.175781 L 500.386719 632.136719 C 500.386719 633.351562 501.378906 634.339844 502.589844 634.339844 L 554.5625 634.339844 C 555.6875 634.339844 556.628906 633.496094 556.753906 632.378906 L 560.402344 599.839844 C 560.410156 599.761719 560.410156 599.671875 560.410156 599.59375 L 560.410156 530.941406 C 560.410156 529.730469 559.421875 528.742188 558.210938 528.742188 L 229.675781 528.742188 C 228.484375 528.742188 227.503906 529.703125 227.472656 530.894531 L 225.339844 632.574219 C 225.3125 633.804688 226.3125 634.824219 227.542969 634.824219 Z M 227.542969 634.824219 " fill-opacity="1" fill-rule="nonzero"/></g></g><g clip-path="url(#3d35c09efc)"><g clip-path="url(#83d82be921)"><path fill="#48a831" d="M 226.960938 595.941406 L 276.230469 595.941406 C 277.441406 595.941406 278.429688 594.949219 278.429688 593.738281 L 278.429688 564.007812 C 278.429688 562.796875 279.417969 561.808594 280.632812 561.808594 L 332.761719 561.808594 C 333.972656 561.808594 334.960938 562.796875 334.960938 564.007812 L 334.960938 583.460938 C 334.960938 584.671875 335.953125 585.660156 337.164062 585.660156 L 372.90625 585.660156 C 374.117188 585.660156 375.105469 584.671875 375.105469 583.460938 L 375.105469 564.007812 C 375.105469 562.796875 376.097656 561.808594 377.308594 561.808594 L 425.65625 561.808594 C 426.867188 561.808594 427.855469 562.796875 427.855469 564.007812 L 427.855469 577.640625 C 427.855469 578.855469 428.847656 579.84375 430.058594 579.84375 L 467.546875 579.84375 C 468.757812 579.84375 469.746094 578.855469 469.746094 577.640625 L 469.746094 561.292969 C 469.746094 560.082031 470.734375 559.09375 471.949219 559.09375 L 513.21875 559.09375 C 514.429688 559.09375 515.417969 560.082031 515.417969 561.292969 L 515.417969 593.253906 C 515.417969 594.464844 516.40625 595.457031 517.621094 595.457031 L 553.980469 595.457031 C 555.105469 595.457031 556.046875 594.613281 556.171875 593.496094 L 559.820312 560.953125 C 559.828125 560.875 559.828125 560.789062 559.828125 560.710938 L 559.828125 492.058594 C 559.828125 490.847656 558.839844 489.859375 557.628906 489.859375 L 229.09375 489.859375 C 227.902344 489.859375 226.921875 490.816406 226.890625 492.011719 L 224.757812 593.691406 C 224.730469 594.921875 225.730469 595.941406 226.960938 595.941406 Z M 226.960938 595.941406 " fill-opacity="1" fill-rule="nonzero"/></g></g><g clip-path="url(#f8be7ef3d4)"><g clip-path="url(#bcc34cfdc2)"><g clip-path="url(#46db9c4c52)"><path fill="#60bd3f" d="M 316.191406 600.980469 L 248.816406 600.980469 C 248.03125 600.980469 247.402344 600.34375 247.402344 599.566406 L 247.402344 532.195312 C 247.402344 531.410156 248.042969 530.777344 248.816406 530.777344 L 316.179688 530.777344 C 316.964844 530.777344 317.59375 531.417969 317.59375 532.195312 L 317.59375 599.558594 C 317.605469 600.34375 316.964844 600.980469 316.191406 600.980469 Z M 316.191406 600.980469 " fill-opacity="1" fill-rule="nonzero"/></g></g></g><g clip-path="url(#a191b3016b)"><g clip-path="url(#2c864274ff)"><g clip-path="url(#6f55fd3a51)"><path fill="#60bd3f" d="M 371.519531 495.160156 L 371.519531 539.15625 C 371.519531 539.941406 372.160156 540.570312 372.933594 540.570312 L 440.296875 540.570312 C 441.082031 540.570312 441.714844 539.933594 441.714844 539.15625 L 441.714844 495.160156 Z M 371.519531 495.160156 " fill-opacity="1" fill-rule="nonzero"/></g></g></g><g clip-path="url(#21175441ab)"><g clip-path="url(#2180df577f)"><g clip-path="url(#c8f3507851)"><path fill="#60bd3f" d="M 554.730469 603.699219 L 487.367188 603.699219 C 486.582031 603.699219 485.949219 603.058594 485.949219 602.28125 L 485.949219 534.910156 C 485.949219 534.125 486.589844 533.492188 487.367188 533.492188 L 554.730469 533.492188 C 555.515625 533.492188 556.144531 534.132812 556.144531 534.910156 L 556.144531 602.273438 C 556.144531 603.058594 555.503906 603.699219 554.730469 603.699219 Z M 554.730469 603.699219 " fill-opacity="1" fill-rule="nonzero"/></g></g></g><g clip-path="url(#08ca4d4672)"><g clip-path="url(#538428a4a6)"><path fill="#7d4024" d="M 329.851562 741.679688 L 298.375 741.679688 C 297 741.679688 295.882812 740.566406 295.882812 739.191406 L 295.882812 707.714844 C 295.882812 706.335938 297 705.222656 298.375 705.222656 L 329.851562 705.222656 C 331.230469 705.222656 332.34375 706.335938 332.34375 707.714844 L 332.34375 739.191406 C 332.34375 740.566406 331.230469 741.679688 329.851562 741.679688 Z M 329.851562 741.679688 " fill-opacity="1" fill-rule="nonzero"/></g></g><g clip-path="url(#8da77f72b4)"><g clip-path="url(#2f9e5c4457)"><path fill="#7d4024" d="M 424.589844 698.242188 L 393.113281 698.242188 C 391.738281 698.242188 390.621094 697.125 390.621094 695.75 L 390.621094 664.273438 C 390.621094 662.894531 391.738281 661.78125 393.113281 661.78125 L 424.589844 661.78125 C 425.964844 661.78125 427.082031 662.894531 427.082031 664.273438 L 427.082031 695.75 C 427.082031 697.125 425.964844 698.242188 424.589844 698.242188 Z M 424.589844 698.242188 " fill-opacity="1" fill-rule="nonzero"/></g></g><g clip-path="url(#f6d973e7f6)"><g clip-path="url(#0651bd170d)"><path fill="#7d4024" d="M 502.9375 764.761719 L 471.464844 764.761719 C 470.085938 764.761719 468.972656 763.644531 468.972656 762.269531 L 468.972656 730.792969 C 468.972656 729.414062 470.085938 728.300781 471.464844 728.300781 L 502.9375 728.300781 C 504.316406 728.300781 505.429688 729.414062 505.429688 730.792969 L 505.429688 762.269531 C 505.429688 763.644531 504.316406 764.761719 502.9375 764.761719 Z M 502.9375 764.761719 " fill-opacity="1" fill-rule="nonzero"/></g></g><g clip-path="url(#2147e2c87f)"><path fill="#874c2b" d="M 847.640625 817.625 L 566.765625 817.625 C 555.683594 817.625 546.703125 808.648438 546.703125 797.5625 L 546.703125 516.6875 C 546.703125 505.605469 555.683594 496.625 566.765625 496.625 L 847.640625 496.625 C 858.722656 496.625 867.703125 505.605469 867.703125 516.6875 L 867.703125 797.5625 C 867.703125 808.648438 858.722656 817.625 847.640625 817.625 Z M 847.640625 817.625 " fill-opacity="1" fill-rule="nonzero"/></g><g clip-path="url(#ad7d3efea0)"><g clip-path="url(#1f78a3bebc)"><path fill="#7d4024" d="M 541.894531 634.824219 L 605.609375 634.824219 C 606.824219 634.824219 607.8125 633.835938 607.8125 632.621094 L 607.8125 602.890625 C 607.8125 601.679688 608.800781 600.691406 610.011719 600.691406 L 641.101562 600.691406 C 642.3125 600.691406 643.300781 601.679688 643.300781 602.890625 L 643.300781 622.34375 C 643.300781 623.554688 644.289062 624.546875 645.503906 624.546875 L 700.152344 624.546875 C 701.363281 624.546875 702.355469 623.554688 702.355469 622.34375 L 702.355469 602.890625 C 702.355469 601.679688 703.34375 600.691406 704.554688 600.691406 L 728.273438 600.691406 C 729.484375 600.691406 730.476562 601.679688 730.476562 602.890625 L 730.476562 616.527344 C 730.476562 617.738281 731.464844 618.726562 732.675781 618.726562 L 790.527344 618.726562 C 791.738281 618.726562 792.726562 617.738281 792.726562 616.527344 L 792.726562 600.175781 C 792.726562 598.964844 793.714844 597.976562 794.929688 597.976562 L 812.539062 597.976562 C 813.75 597.976562 814.738281 598.964844 814.738281 600.175781 L 814.738281 632.136719 C 814.738281 633.351562 815.726562 634.339844 816.941406 634.339844 L 868.914062 634.339844 C 870.039062 634.339844 870.980469 633.496094 871.105469 632.378906 L 874.753906 599.839844 C 874.761719 599.761719 874.761719 599.671875 874.761719 599.59375 L 874.761719 530.941406 C 874.761719 529.730469 873.773438 528.742188 872.5625 528.742188 L 544.027344 528.742188 C 542.832031 528.742188 541.855469 529.703125 541.824219 530.894531 L 539.691406 632.574219 C 539.664062 633.804688 540.660156 634.824219 541.894531 634.824219 Z M 541.894531 634.824219 " fill-opacity="1" fill-rule="nonzero"/></g></g><g clip-path="url(#e02515a8fe)"><g clip-path="url(#d795bc2084)"><path fill="#48a831" d="M 541.3125 595.941406 L 590.582031 595.941406 C 591.792969 595.941406 592.78125 594.949219 592.78125 593.738281 L 592.78125 564.007812 C 592.78125 562.796875 593.769531 561.808594 594.984375 561.808594 L 647.113281 561.808594 C 648.324219 561.808594 649.3125 562.796875 649.3125 564.007812 L 649.3125 583.460938 C 649.3125 584.671875 650.300781 585.660156 651.515625 585.660156 L 687.257812 585.660156 C 688.46875 585.660156 689.457031 584.671875 689.457031 583.460938 L 689.457031 564.007812 C 689.457031 562.796875 690.445312 561.808594 691.660156 561.808594 L 740.007812 561.808594 C 741.21875 561.808594 742.207031 562.796875 742.207031 564.007812 L 742.207031 577.640625 C 742.207031 578.855469 743.195312 579.84375 744.410156 579.84375 L 781.894531 579.84375 C 783.109375 579.84375 784.097656 578.855469 784.097656 577.640625 L 784.097656 561.292969 C 784.097656 560.082031 785.085938 559.09375 786.296875 559.09375 L 827.566406 559.09375 C 828.78125 559.09375 829.769531 560.082031 829.769531 561.292969 L 829.769531 593.253906 C 829.769531 594.464844 830.757812 595.457031 831.96875 595.457031 L 868.332031 595.457031 C 869.457031 595.457031 870.398438 594.613281 870.523438 593.496094 L 874.171875 560.953125 C 874.179688 560.875 874.179688 560.789062 874.179688 560.710938 L 874.179688 492.058594 C 874.179688 490.847656 873.191406 489.859375 871.980469 489.859375 L 543.445312 489.859375 C 542.25 489.859375 541.273438 490.816406 541.242188 492.011719 L 539.109375 593.691406 C 539.082031 594.921875 540.078125 595.941406 541.3125 595.941406 Z M 541.3125 595.941406 " fill-opacity="1" fill-rule="nonzero"/></g></g><g clip-path="url(#e1f832ff48)"><g clip-path="url(#e0de1eadef)"><g clip-path="url(#ed0387d22a)"><path fill="#60bd3f" d="M 630.539062 600.980469 L 563.167969 600.980469 C 562.382812 600.980469 561.75 600.34375 561.75 599.566406 L 561.75 532.195312 C 561.75 531.410156 562.390625 530.777344 563.167969 530.777344 L 630.53125 530.777344 C 631.316406 530.777344 631.945312 531.417969 631.945312 532.195312 L 631.945312 599.558594 C 631.957031 600.34375 631.316406 600.980469 630.539062 600.980469 Z M 630.539062 600.980469 " fill-opacity="1" fill-rule="nonzero"/></g></g></g><g clip-path="url(#b18c3904d7)"><g clip-path="url(#132e2f1c3d)"><g clip-path="url(#138c79f4a2)"><path fill="#60bd3f" d="M 685.871094 495.160156 L 685.871094 539.15625 C 685.871094 539.941406 686.511719 540.570312 687.285156 540.570312 L 754.648438 540.570312 C 755.433594 540.570312 756.0625 539.933594 756.0625 539.15625 L 756.0625 495.160156 Z M 685.871094 495.160156 " fill-opacity="1" fill-rule="nonzero"/></g></g></g><g clip-path="url(#b9e4c7e822)"><g clip-path="url(#e0910145ab)"><g clip-path="url(#5dc040814a)"><path fill="#60bd3f" d="M 869.078125 603.699219 L 801.714844 603.699219 C 800.929688 603.699219 800.300781 603.058594 800.300781 602.28125 L 800.300781 534.910156 C 800.300781 534.125 800.941406 533.492188 801.714844 533.492188 L 869.078125 533.492188 C 869.863281 533.492188 870.496094 534.132812 870.496094 534.910156 L 870.496094 602.273438 C 870.496094 603.058594 869.855469 603.699219 869.078125 603.699219 Z M 869.078125 603.699219 " fill-opacity="1" fill-rule="nonzero"/></g></g></g><g clip-path="url(#a36839fc75)"><g clip-path="url(#2231db1b78)"><path fill="#7d4024" d="M 644.203125 741.679688 L 612.726562 741.679688 C 611.351562 741.679688 610.234375 740.566406 610.234375 739.191406 L 610.234375 707.714844 C 610.234375 706.335938 611.351562 705.222656 612.726562 705.222656 L 644.203125 705.222656 C 645.578125 705.222656 646.695312 706.335938 646.695312 707.714844 L 646.695312 739.191406 C 646.695312 740.566406 645.578125 741.679688 644.203125 741.679688 Z M 644.203125 741.679688 " fill-opacity="1" fill-rule="nonzero"/></g></g><g clip-path="url(#4ebdb720d8)"><g clip-path="url(#707011dd5f)"><path fill="#7d4024" d="M 738.941406 698.242188 L 707.464844 698.242188 C 706.085938 698.242188 704.972656 697.125 704.972656 695.75 L 704.972656 664.273438 C 704.972656 662.894531 706.085938 661.78125 707.464844 661.78125 L 738.941406 661.78125 C 740.316406 661.78125 741.433594 662.894531 741.433594 664.273438 L 741.433594 695.75 C 741.433594 697.125 740.316406 698.242188 738.941406 698.242188 Z M 738.941406 698.242188 " fill-opacity="1" fill-rule="nonzero"/></g></g><g clip-path="url(#073a7e565e)"><g clip-path="url(#3add4dbd63)"><path fill="#7d4024" d="M 817.289062 764.761719 L 785.8125 764.761719 C 784.4375 764.761719 783.320312 763.644531 783.320312 762.269531 L 783.320312 730.792969 C 783.320312 729.414062 784.4375 728.300781 785.8125 728.300781 L 817.289062 728.300781 C 818.667969 728.300781 819.78125 729.414062 819.78125 730.792969 L 819.78125 762.269531 C 819.78125 763.644531 818.667969 764.761719 817.289062 764.761719 Z M 817.289062 764.761719 " fill-opacity="1" fill-rule="nonzero"/></g></g><g clip-path="url(#6460a23280)"><path fill="#874c2b" d="M 1157.105469 817.625 L 876.230469 817.625 C 865.148438 817.625 856.167969 808.648438 856.167969 797.5625 L 856.167969 516.6875 C 856.167969 505.605469 865.148438 496.625 876.230469 496.625 L 1157.105469 496.625 C 1168.1875 496.625 1177.167969 505.605469 1177.167969 516.6875 L 1177.167969 797.5625 C 1177.167969 808.648438 1168.1875 817.625 1157.105469 817.625 Z M 1157.105469 817.625 " fill-opacity="1" fill-rule="nonzero"/></g><g clip-path="url(#aa737ec04e)"><g clip-path="url(#b7aff67a4f)"><path fill="#7d4024" d="M 851.359375 634.824219 L 915.074219 634.824219 C 916.289062 634.824219 917.277344 633.835938 917.277344 632.621094 L 917.277344 602.890625 C 917.277344 601.679688 918.265625 600.691406 919.476562 600.691406 L 950.566406 600.691406 C 951.777344 600.691406 952.765625 601.679688 952.765625 602.890625 L 952.765625 622.34375 C 952.765625 623.554688 953.753906 624.546875 954.96875 624.546875 L 1009.617188 624.546875 C 1010.832031 624.546875 1011.820312 623.554688 1011.820312 622.34375 L 1011.820312 602.890625 C 1011.820312 601.679688 1012.808594 600.691406 1014.019531 600.691406 L 1037.738281 600.691406 C 1038.949219 600.691406 1039.941406 601.679688 1039.941406 602.890625 L 1039.941406 616.527344 C 1039.941406 617.738281 1040.929688 618.726562 1042.140625 618.726562 L 1099.992188 618.726562 C 1101.203125 618.726562 1102.191406 617.738281 1102.191406 616.527344 L 1102.191406 600.175781 C 1102.191406 598.964844 1103.183594 597.976562 1104.394531 597.976562 L 1122.003906 597.976562 C 1123.214844 597.976562 1124.203125 598.964844 1124.203125 600.175781 L 1124.203125 632.136719 C 1124.203125 633.351562 1125.195312 634.339844 1126.40625 634.339844 L 1178.378906 634.339844 C 1179.503906 634.339844 1180.445312 633.496094 1180.570312 632.378906 L 1184.21875 599.839844 C 1184.226562 599.761719 1184.226562 599.671875 1184.226562 599.59375 L 1184.226562 530.941406 C 1184.226562 529.730469 1183.238281 528.742188 1182.027344 528.742188 L 853.492188 528.742188 C 852.300781 528.742188 851.320312 529.703125 851.289062 530.894531 L 849.15625 632.574219 C 849.128906 633.804688 850.125 634.824219 851.359375 634.824219 Z M 851.359375 634.824219 " fill-opacity="1" fill-rule="nonzero"/></g></g><g clip-path="url(#eee02bb2b0)"><g clip-path="url(#22a966b6b3)"><path fill="#48a831" d="M 850.777344 595.941406 L 900.046875 595.941406 C 901.257812 595.941406 902.246094 594.949219 902.246094 593.738281 L 902.246094 564.007812 C 902.246094 562.796875 903.234375 561.808594 904.449219 561.808594 L 956.578125 561.808594 C 957.789062 561.808594 958.777344 562.796875 958.777344 564.007812 L 958.777344 583.460938 C 958.777344 584.671875 959.769531 585.660156 960.980469 585.660156 L 996.722656 585.660156 C 997.933594 585.660156 998.921875 584.671875 998.921875 583.460938 L 998.921875 564.007812 C 998.921875 562.796875 999.910156 561.808594 1001.125 561.808594 L 1049.472656 561.808594 C 1050.683594 561.808594 1051.671875 562.796875 1051.671875 564.007812 L 1051.671875 577.640625 C 1051.671875 578.855469 1052.664062 579.84375 1053.875 579.84375 L 1091.363281 579.84375 C 1092.574219 579.84375 1093.5625 578.855469 1093.5625 577.640625 L 1093.5625 561.292969 C 1093.5625 560.082031 1094.550781 559.09375 1095.765625 559.09375 L 1137.035156 559.09375 C 1138.246094 559.09375 1139.234375 560.082031 1139.234375 561.292969 L 1139.234375 593.253906 C 1139.234375 594.464844 1140.222656 595.457031 1141.4375 595.457031 L 1177.796875 595.457031 C 1178.921875 595.457031 1179.863281 594.613281 1179.988281 593.496094 L 1183.636719 560.953125 C 1183.644531 560.875 1183.644531 560.789062 1183.644531 560.710938 L 1183.644531 492.058594 C 1183.644531 490.847656 1182.65625 489.859375 1181.445312 489.859375 L 852.910156 489.859375 C 851.71875 489.859375 850.738281 490.816406 850.707031 492.011719 L 848.574219 593.691406 C 848.546875 594.921875 849.546875 595.941406 850.777344 595.941406 Z M 850.777344 595.941406 " fill-opacity="1" fill-rule="nonzero"/></g></g><g clip-path="url(#2b0b923993)"><g clip-path="url(#6c0bde1107)"><g clip-path="url(#8309948428)"><path fill="#60bd3f" d="M 940.003906 600.980469 L 872.632812 600.980469 C 871.847656 600.980469 871.21875 600.34375 871.21875 599.566406 L 871.21875 532.195312 C 871.21875 531.410156 871.855469 530.777344 872.632812 530.777344 L 939.996094 530.777344 C 940.78125 530.777344 941.410156 531.417969 941.410156 532.195312 L 941.410156 599.558594 C 941.421875 600.34375 940.78125 600.980469 940.003906 600.980469 Z M 940.003906 600.980469 " fill-opacity="1" fill-rule="nonzero"/></g></g></g><g clip-path="url(#1f8976e582)"><g clip-path="url(#22a45b908b)"><g clip-path="url(#cc6a273a04)"><path fill="#60bd3f" d="M 995.335938 495.160156 L 995.335938 539.15625 C 995.335938 539.941406 995.976562 540.570312 996.75 540.570312 L 1064.113281 540.570312 C 1064.898438 540.570312 1065.53125 539.933594 1065.53125 539.15625 L 1065.53125 495.160156 Z M 995.335938 495.160156 " fill-opacity="1" fill-rule="nonzero"/></g></g></g><g clip-path="url(#9e71341e40)"><g clip-path="url(#f170a0c57e)"><g clip-path="url(#4c38120742)"><path fill="#60bd3f" d="M 1178.542969 603.699219 L 1111.183594 603.699219 C 1110.394531 603.699219 1109.765625 603.058594 1109.765625 602.28125 L 1109.765625 534.910156 C 1109.765625 534.125 1110.40625 533.492188 1111.183594 533.492188 L 1178.542969 533.492188 C 1179.332031 533.492188 1179.960938 534.132812 1179.960938 534.910156 L 1179.960938 602.273438 C 1179.960938 603.058594 1179.320312 603.699219 1178.542969 603.699219 Z M 1178.542969 603.699219 " fill-opacity="1" fill-rule="nonzero"/></g></g></g><g clip-path="url(#d0ecd86598)"><g clip-path="url(#cc528330b7)"><path fill="#7d4024" d="M 953.667969 741.679688 L 922.191406 741.679688 C 920.816406 741.679688 919.699219 740.566406 919.699219 739.191406 L 919.699219 707.714844 C 919.699219 706.335938 920.816406 705.222656 922.191406 705.222656 L 953.667969 705.222656 C 955.046875 705.222656 956.160156 706.335938 956.160156 707.714844 L 956.160156 739.191406 C 956.160156 740.566406 955.046875 741.679688 953.667969 741.679688 Z M 953.667969 741.679688 " fill-opacity="1" fill-rule="nonzero"/></g></g><g clip-path="url(#d25f0bb062)"><g clip-path="url(#9496c1c03f)"><path fill="#7d4024" d="M 1048.40625 698.242188 L 1016.929688 698.242188 C 1015.554688 698.242188 1014.4375 697.125 1014.4375 695.75 L 1014.4375 664.273438 C 1014.4375 662.894531 1015.554688 661.78125 1016.929688 661.78125 L 1048.40625 661.78125 C 1049.78125 661.78125 1050.898438 662.894531 1050.898438 664.273438 L 1050.898438 695.75 C 1050.898438 697.125 1049.78125 698.242188 1048.40625 698.242188 Z M 1048.40625 698.242188 " fill-opacity="1" fill-rule="nonzero"/></g></g><g clip-path="url(#6863570e0e)"><g clip-path="url(#e9da41f109)"><path fill="#7d4024" d="M 1126.753906 764.761719 L 1095.277344 764.761719 C 1093.902344 764.761719 1092.789062 763.644531 1092.789062 762.269531 L 1092.789062 730.792969 C 1092.789062 729.414062 1093.902344 728.300781 1095.277344 728.300781 L 1126.753906 728.300781 C 1128.132812 728.300781 1129.246094 729.414062 1129.246094 730.792969 L 1129.246094 762.269531 C 1129.246094 763.644531 1128.132812 764.761719 1126.753906 764.761719 Z M 1126.753906 764.761719 " fill-opacity="1" fill-rule="nonzero"/></g></g><g clip-path="url(#675d29fbc4)"><path fill="#874c2b" d="M 1464.308594 817.625 L 1183.433594 817.625 C 1172.351562 817.625 1163.371094 808.648438 1163.371094 797.5625 L 1163.371094 516.6875 C 1163.371094 505.605469 1172.351562 496.625 1183.433594 496.625 L 1464.308594 496.625 C 1475.394531 496.625 1484.371094 505.605469 1484.371094 516.6875 L 1484.371094 797.5625 C 1484.371094 808.648438 1475.394531 817.625 1464.308594 817.625 Z M 1464.308594 817.625 " fill-opacity="1" fill-rule="nonzero"/></g><g clip-path="url(#e5fd053492)"><g clip-path="url(#ed9d374650)"><path fill="#7d4024" d="M 1158.5625 634.824219 L 1222.28125 634.824219 C 1223.492188 634.824219 1224.480469 633.835938 1224.480469 632.621094 L 1224.480469 602.890625 C 1224.480469 601.679688 1225.46875 600.691406 1226.683594 600.691406 L 1257.769531 600.691406 C 1258.980469 600.691406 1259.972656 601.679688 1259.972656 602.890625 L 1259.972656 622.34375 C 1259.972656 623.554688 1260.960938 624.546875 1262.171875 624.546875 L 1316.824219 624.546875 C 1318.035156 624.546875 1319.023438 623.554688 1319.023438 622.34375 L 1319.023438 602.890625 C 1319.023438 601.679688 1320.011719 600.691406 1321.226562 600.691406 L 1344.941406 600.691406 C 1346.15625 600.691406 1347.144531 601.679688 1347.144531 602.890625 L 1347.144531 616.527344 C 1347.144531 617.738281 1348.132812 618.726562 1349.34375 618.726562 L 1407.195312 618.726562 C 1408.40625 618.726562 1409.398438 617.738281 1409.398438 616.527344 L 1409.398438 600.175781 C 1409.398438 598.964844 1410.386719 597.976562 1411.597656 597.976562 L 1429.207031 597.976562 C 1430.417969 597.976562 1431.410156 598.964844 1431.410156 600.175781 L 1431.410156 632.136719 C 1431.410156 633.351562 1432.398438 634.339844 1433.609375 634.339844 L 1485.585938 634.339844 C 1486.710938 634.339844 1487.648438 633.496094 1487.777344 632.378906 L 1491.421875 599.839844 C 1491.429688 599.761719 1491.429688 599.671875 1491.429688 599.59375 L 1491.429688 530.941406 C 1491.429688 529.730469 1490.441406 528.742188 1489.230469 528.742188 L 1160.695312 528.742188 C 1159.503906 528.742188 1158.523438 529.703125 1158.496094 530.894531 L 1156.363281 632.574219 C 1156.332031 633.804688 1157.332031 634.824219 1158.5625 634.824219 Z M 1158.5625 634.824219 " fill-opacity="1" fill-rule="nonzero"/></g></g><g clip-path="url(#f4556968aa)"><g clip-path="url(#b176b4591f)"><path fill="#48a831" d="M 1157.980469 595.941406 L 1207.25 595.941406 C 1208.460938 595.941406 1209.449219 594.949219 1209.449219 593.738281 L 1209.449219 564.007812 C 1209.449219 562.796875 1210.441406 561.808594 1211.652344 561.808594 L 1263.78125 561.808594 C 1264.992188 561.808594 1265.984375 562.796875 1265.984375 564.007812 L 1265.984375 583.460938 C 1265.984375 584.671875 1266.972656 585.660156 1268.183594 585.660156 L 1303.925781 585.660156 C 1305.136719 585.660156 1306.128906 584.671875 1306.128906 583.460938 L 1306.128906 564.007812 C 1306.128906 562.796875 1307.117188 561.808594 1308.328125 561.808594 L 1356.675781 561.808594 C 1357.886719 561.808594 1358.878906 562.796875 1358.878906 564.007812 L 1358.878906 577.640625 C 1358.878906 578.855469 1359.867188 579.84375 1361.078125 579.84375 L 1398.566406 579.84375 C 1399.777344 579.84375 1400.765625 578.855469 1400.765625 577.640625 L 1400.765625 561.292969 C 1400.765625 560.082031 1401.757812 559.09375 1402.96875 559.09375 L 1444.238281 559.09375 C 1445.449219 559.09375 1446.4375 560.082031 1446.4375 561.292969 L 1446.4375 593.253906 C 1446.4375 594.464844 1447.425781 595.457031 1448.640625 595.457031 L 1485.003906 595.457031 C 1486.128906 595.457031 1487.066406 594.613281 1487.195312 593.496094 L 1490.839844 560.953125 C 1490.851562 560.875 1490.851562 560.789062 1490.851562 560.710938 L 1490.851562 492.058594 C 1490.851562 490.847656 1489.859375 489.859375 1488.648438 489.859375 L 1160.113281 489.859375 C 1158.921875 489.859375 1157.941406 490.816406 1157.914062 492.011719 L 1155.78125 593.691406 C 1155.75 594.921875 1156.75 595.941406 1157.980469 595.941406 Z M 1157.980469 595.941406 " fill-opacity="1" fill-rule="nonzero"/></g></g><g clip-path="url(#b1dc6ca3e1)"><g clip-path="url(#36a62e8661)"><g clip-path="url(#6d82868014)"><path fill="#60bd3f" d="M 1247.210938 600.980469 L 1179.835938 600.980469 C 1179.050781 600.980469 1178.421875 600.34375 1178.421875 599.566406 L 1178.421875 532.195312 C 1178.421875 531.410156 1179.0625 530.777344 1179.835938 530.777344 L 1247.199219 530.777344 C 1247.984375 530.777344 1248.617188 531.417969 1248.617188 532.195312 L 1248.617188 599.558594 C 1248.625 600.34375 1247.984375 600.980469 1247.210938 600.980469 Z M 1247.210938 600.980469 " fill-opacity="1" fill-rule="nonzero"/></g></g></g><g clip-path="url(#819e0ab832)"><g clip-path="url(#a704f0c177)"><g clip-path="url(#e99ee31bf4)"><path fill="#60bd3f" d="M 1302.539062 495.160156 L 1302.539062 539.15625 C 1302.539062 539.941406 1303.179688 540.570312 1303.957031 540.570312 L 1371.316406 540.570312 C 1372.105469 540.570312 1372.734375 539.933594 1372.734375 539.15625 L 1372.734375 495.160156 Z M 1302.539062 495.160156 " fill-opacity="1" fill-rule="nonzero"/></g></g></g><g clip-path="url(#2f1b9f4da4)"><g clip-path="url(#a59e9db82d)"><g clip-path="url(#e229d638e5)"><path fill="#60bd3f" d="M 1485.75 603.699219 L 1418.386719 603.699219 C 1417.601562 603.699219 1416.96875 603.058594 1416.96875 602.28125 L 1416.96875 534.910156 C 1416.96875 534.125 1417.609375 533.492188 1418.386719 533.492188 L 1485.75 533.492188 C 1486.535156 533.492188 1487.164062 534.132812 1487.164062 534.910156 L 1487.164062 602.273438 C 1487.164062 603.058594 1486.523438 603.699219 1485.75 603.699219 Z M 1485.75 603.699219 " fill-opacity="1" fill-rule="nonzero"/></g></g></g><g clip-path="url(#67cbe21b93)"><g clip-path="url(#791cfe2bec)"><path fill="#7d4024" d="M 1260.871094 741.679688 L 1229.398438 741.679688 C 1228.019531 741.679688 1226.90625 740.566406 1226.90625 739.191406 L 1226.90625 707.714844 C 1226.90625 706.335938 1228.019531 705.222656 1229.398438 705.222656 L 1260.871094 705.222656 C 1262.25 705.222656 1263.363281 706.335938 1263.363281 707.714844 L 1263.363281 739.191406 C 1263.363281 740.566406 1262.25 741.679688 1260.871094 741.679688 Z M 1260.871094 741.679688 " fill-opacity="1" fill-rule="nonzero"/></g></g><g clip-path="url(#c36d8b7800)"><g clip-path="url(#f74611b357)"><path fill="#7d4024" d="M 1355.609375 698.242188 L 1324.132812 698.242188 C 1322.757812 698.242188 1321.640625 697.125 1321.640625 695.75 L 1321.640625 664.273438 C 1321.640625 662.894531 1322.757812 661.78125 1324.132812 661.78125 L 1355.609375 661.78125 C 1356.988281 661.78125 1358.101562 662.894531 1358.101562 664.273438 L 1358.101562 695.75 C 1358.101562 697.125 1356.988281 698.242188 1355.609375 698.242188 Z M 1355.609375 698.242188 " fill-opacity="1" fill-rule="nonzero"/></g></g><g clip-path="url(#bbb58c613b)"><g clip-path="url(#27282a947c)"><path fill="#7d4024" d="M 1433.960938 764.761719 L 1402.484375 764.761719 C 1401.105469 764.761719 1399.992188 763.644531 1399.992188 762.269531 L 1399.992188 730.792969 C 1399.992188 729.414062 1401.105469 728.300781 1402.484375 728.300781 L 1433.960938 728.300781 C 1435.335938 728.300781 1436.449219 729.414062 1436.449219 730.792969 L 1436.449219 762.269531 C 1436.449219 763.644531 1435.335938 764.761719 1433.960938 764.761719 Z M 1433.960938 764.761719 " fill-opacity="1" fill-rule="nonzero"/></g></g></svg>