<svg xmlns="http://www.w3.org/2000/svg" xmlns:xlink="http://www.w3.org/1999/xlink" width="576" zoomAndPan="magnify" viewBox="0 0 432 323.999988" height="432" preserveAspectRatio="xMidYMid meet" version="1.0"><path fill="#b2b2b2" d="M 269.984375 242.96875 L 242.984375 242.96875 L 242.984375 296.964844 L 296.976562 296.964844 L 296.976562 269.972656 L 269.984375 269.972656 Z M 269.984375 242.96875 " fill-opacity="1" fill-rule="nonzero"/><path fill="#b2b2b2" d="M 296.976562 242.96875 L 323.972656 242.96875 L 323.972656 269.960938 L 296.976562 269.960938 Z M 296.976562 242.96875 " fill-opacity="1" fill-rule="nonzero"/><path fill="#b2b2b2" d="M 215.992188 215.976562 L 27.007812 215.976562 L 27.007812 242.96875 L 242.984375 242.96875 L 242.984375 215.976562 Z M 215.992188 215.976562 " fill-opacity="1" fill-rule="nonzero"/><path fill="#b2b2b2" d="M 323.980469 215.976562 L 350.972656 215.976562 L 350.972656 242.96875 L 323.980469 242.96875 Z M 323.980469 215.976562 " fill-opacity="1" fill-rule="nonzero"/><path fill="#b2b2b2" d="M 350.972656 188.976562 L 377.964844 188.976562 L 377.964844 215.96875 L 350.972656 215.96875 Z M 350.972656 188.976562 " fill-opacity="1" fill-rule="nonzero"/><path fill="#b2b2b2" d="M 377.972656 161.984375 L 404.96875 161.984375 L 404.96875 188.976562 L 377.972656 188.976562 Z M 377.972656 161.984375 " fill-opacity="1" fill-rule="nonzero"/><path fill="#f6f6f6" d="M 377.972656 134.980469 L 377.972656 107.988281 L 350.972656 107.988281 L 350.972656 80.988281 L 323.980469 80.988281 L 323.980469 53.996094 L 296.976562 53.996094 L 296.976562 26.992188 L 242.984375 26.992188 L 242.984375 80.988281 L 27.007812 80.988281 L 27.007812 215.976562 L 242.984375 215.976562 L 242.984375 242.96875 L 269.984375 242.96875 L 269.984375 269.972656 L 296.976562 269.972656 L 296.976562 242.96875 L 323.980469 242.96875 L 323.980469 215.976562 L 350.972656 215.976562 L 350.972656 188.976562 L 377.972656 188.976562 L 377.972656 161.984375 L 404.96875 161.984375 L 404.96875 134.980469 Z M 377.972656 134.980469 " fill-opacity="1" fill-rule="nonzero"/><path fill="#100d08" d="M 242.984375 296.964844 L 242.984375 323.964844 L 296.976562 323.964844 L 296.976562 296.964844 Z M 242.984375 296.964844 " fill-opacity="1" fill-rule="nonzero"/><path fill="#100d08" d="M 296.976562 269.972656 L 323.972656 269.972656 L 323.972656 296.964844 L 296.976562 296.964844 Z M 296.976562 269.972656 " fill-opacity="1" fill-rule="nonzero"/><path fill="#100d08" d="M 242.984375 242.96875 L 27.007812 242.96875 L 27.007812 269.972656 L 215.992188 269.972656 L 215.992188 296.964844 L 242.984375 296.964844 Z M 242.984375 242.96875 " fill-opacity="1" fill-rule="nonzero"/><path fill="#100d08" d="M 323.980469 242.96875 L 350.972656 242.96875 L 350.972656 269.960938 L 323.980469 269.960938 Z M 323.980469 242.96875 " fill-opacity="1" fill-rule="nonzero"/><path fill="#100d08" d="M 350.972656 215.976562 L 377.964844 215.976562 L 377.964844 242.96875 L 350.972656 242.96875 Z M 350.972656 215.976562 " fill-opacity="1" fill-rule="nonzero"/><path fill="#100d08" d="M 27.007812 188.976562 L 27.007812 80.988281 L 0.015625 80.988281 L 0.015625 242.96875 L 27.007812 242.96875 Z M 27.007812 188.976562 " fill-opacity="1" fill-rule="nonzero"/><path fill="#100d08" d="M 377.972656 188.976562 L 404.96875 188.976562 L 404.96875 215.96875 L 377.972656 215.96875 Z M 377.972656 188.976562 " fill-opacity="1" fill-rule="nonzero"/><path fill="#100d08" d="M 404.96875 134.980469 L 404.96875 188.976562 L 431.96875 188.976562 L 431.96875 134.980469 Z M 404.96875 134.980469 " fill-opacity="1" fill-rule="nonzero"/><path fill="#100d08" d="M 377.972656 107.988281 L 404.96875 107.988281 L 404.96875 134.980469 L 377.972656 134.980469 Z M 377.972656 107.988281 " fill-opacity="1" fill-rule="nonzero"/><path fill="#100d08" d="M 350.972656 80.988281 L 377.964844 80.988281 L 377.964844 107.980469 L 350.972656 107.980469 Z M 350.972656 80.988281 " fill-opacity="1" fill-rule="nonzero"/><path fill="#100d08" d="M 81 80.988281 L 242.984375 80.988281 L 242.984375 26.992188 L 215.992188 26.992188 L 215.992188 53.996094 L 27.007812 53.996094 L 27.007812 80.988281 Z M 81 80.988281 " fill-opacity="1" fill-rule="nonzero"/><path fill="#100d08" d="M 323.980469 53.996094 L 350.972656 53.996094 L 350.972656 80.988281 L 323.980469 80.988281 Z M 323.980469 53.996094 " fill-opacity="1" fill-rule="nonzero"/><path fill="#100d08" d="M 296.976562 26.992188 L 323.972656 26.992188 L 323.972656 53.984375 L 296.976562 53.984375 Z M 296.976562 26.992188 " fill-opacity="1" fill-rule="nonzero"/><path fill="#100d08" d="M 296.976562 26.992188 L 296.976562 0 L 242.984375 0 L 242.984375 26.992188 Z M 296.976562 26.992188 " fill-opacity="1" fill-rule="nonzero"/><path fill="#b2b2b2" d="M 269.984375 242.96875 L 242.984375 242.96875 L 242.984375 296.964844 L 296.976562 296.964844 L 296.976562 269.972656 L 269.984375 269.972656 Z M 269.984375 242.96875 " fill-opacity="1" fill-rule="nonzero"/><path fill="#b2b2b2" d="M 296.976562 242.96875 L 323.972656 242.96875 L 323.972656 269.960938 L 296.976562 269.960938 Z M 296.976562 242.96875 " fill-opacity="1" fill-rule="nonzero"/><path fill="#b2b2b2" d="M 215.992188 215.976562 L 27.007812 215.976562 L 27.007812 242.96875 L 242.984375 242.96875 L 242.984375 215.976562 Z M 215.992188 215.976562 " fill-opacity="1" fill-rule="nonzero"/><path fill="#b2b2b2" d="M 323.980469 215.976562 L 350.972656 215.976562 L 350.972656 242.96875 L 323.980469 242.96875 Z M 323.980469 215.976562 " fill-opacity="1" fill-rule="nonzero"/><path fill="#b2b2b2" d="M 350.972656 188.976562 L 377.964844 188.976562 L 377.964844 215.96875 L 350.972656 215.96875 Z M 350.972656 188.976562 " fill-opacity="1" fill-rule="nonzero"/><path fill="#b2b2b2" d="M 377.972656 161.984375 L 404.96875 161.984375 L 404.96875 188.976562 L 377.972656 188.976562 Z M 377.972656 161.984375 " fill-opacity="1" fill-rule="nonzero"/><path fill="#f6f6f6" d="M 377.972656 134.980469 L 377.972656 107.988281 L 350.972656 107.988281 L 350.972656 80.988281 L 323.980469 80.988281 L 323.980469 53.996094 L 296.976562 53.996094 L 296.976562 26.992188 L 242.984375 26.992188 L 242.984375 80.988281 L 27.007812 80.988281 L 27.007812 215.976562 L 242.984375 215.976562 L 242.984375 242.96875 L 269.984375 242.96875 L 269.984375 269.972656 L 296.976562 269.972656 L 296.976562 242.96875 L 323.980469 242.96875 L 323.980469 215.976562 L 350.972656 215.976562 L 350.972656 188.976562 L 377.972656 188.976562 L 377.972656 161.984375 L 404.96875 161.984375 L 404.96875 134.980469 Z M 377.972656 134.980469 " fill-opacity="1" fill-rule="nonzero"/><path fill="#100d08" d="M 242.984375 296.964844 L 242.984375 323.964844 L 296.976562 323.964844 L 296.976562 296.964844 Z M 242.984375 296.964844 " fill-opacity="1" fill-rule="nonzero"/><path fill="#100d08" d="M 296.976562 269.972656 L 323.972656 269.972656 L 323.972656 296.964844 L 296.976562 296.964844 Z M 296.976562 269.972656 " fill-opacity="1" fill-rule="nonzero"/><path fill="#100d08" d="M 242.984375 242.96875 L 27.007812 242.96875 L 27.007812 269.972656 L 215.992188 269.972656 L 215.992188 296.964844 L 242.984375 296.964844 Z M 242.984375 242.96875 " fill-opacity="1" fill-rule="nonzero"/><path fill="#100d08" d="M 323.980469 242.96875 L 350.972656 242.96875 L 350.972656 269.960938 L 323.980469 269.960938 Z M 323.980469 242.96875 " fill-opacity="1" fill-rule="nonzero"/><path fill="#100d08" d="M 350.972656 215.976562 L 377.964844 215.976562 L 377.964844 242.96875 L 350.972656 242.96875 Z M 350.972656 215.976562 " fill-opacity="1" fill-rule="nonzero"/><path fill="#100d08" d="M 27.007812 188.976562 L 27.007812 80.988281 L 0.015625 80.988281 L 0.015625 242.96875 L 27.007812 242.96875 Z M 27.007812 188.976562 " fill-opacity="1" fill-rule="nonzero"/><path fill="#100d08" d="M 377.972656 188.976562 L 404.96875 188.976562 L 404.96875 215.96875 L 377.972656 215.96875 Z M 377.972656 188.976562 " fill-opacity="1" fill-rule="nonzero"/><path fill="#100d08" d="M 404.96875 134.980469 L 404.96875 188.976562 L 431.96875 188.976562 L 431.96875 134.980469 Z M 404.96875 134.980469 " fill-opacity="1" fill-rule="nonzero"/><path fill="#100d08" d="M 377.972656 107.988281 L 404.96875 107.988281 L 404.96875 134.980469 L 377.972656 134.980469 Z M 377.972656 107.988281 " fill-opacity="1" fill-rule="nonzero"/><path fill="#100d08" d="M 350.972656 80.988281 L 377.964844 80.988281 L 377.964844 107.980469 L 350.972656 107.980469 Z M 350.972656 80.988281 " fill-opacity="1" fill-rule="nonzero"/><path fill="#100d08" d="M 81 80.988281 L 242.984375 80.988281 L 242.984375 26.992188 L 215.992188 26.992188 L 215.992188 53.996094 L 27.007812 53.996094 L 27.007812 80.988281 Z M 81 80.988281 " fill-opacity="1" fill-rule="nonzero"/><path fill="#100d08" d="M 323.980469 53.996094 L 350.972656 53.996094 L 350.972656 80.988281 L 323.980469 80.988281 Z M 323.980469 53.996094 " fill-opacity="1" fill-rule="nonzero"/><path fill="#100d08" d="M 296.976562 26.992188 L 323.972656 26.992188 L 323.972656 53.984375 L 296.976562 53.984375 Z M 296.976562 26.992188 " fill-opacity="1" fill-rule="nonzero"/><path fill="#100d08" d="M 296.976562 26.992188 L 296.976562 0 L 242.984375 0 L 242.984375 26.992188 Z M 296.976562 26.992188 " fill-opacity="1" fill-rule="nonzero"/></svg>